<svg width="48" height="48" viewBox="0 0 48 48" fill="none" xmlns="http://www.w3.org/2000/svg">
<circle cx="24" cy="24" r="24" fill="#666972"/>
<path d="M23.7361 13C24.2447 13 24.7544 13 25.263 13C25.3277 13.014 25.3912 13.0334 25.457 13.042C25.8643 13.0959 26.2759 13.125 26.6779 13.2036C29.1714 13.6917 31.2802 14.8758 32.9946 16.7484C34.4946 18.3871 35.4461 20.3028 35.8222 22.4964C35.8922 22.9069 35.9407 23.3218 36 23.7344C36 24.243 36 24.7526 36 25.2611C35.986 25.3182 35.9677 25.3753 35.9591 25.4335C35.8815 25.9571 35.8384 26.4894 35.7231 27.0044C35.0722 29.8951 33.5119 32.1911 31.1067 33.9042C29.68 34.9203 28.0873 35.5559 26.3568 35.8447C25.2188 36.0354 24.0777 36.0494 22.9376 35.891C21.4958 35.6906 20.1359 35.237 18.8611 34.527C18.7598 34.471 18.6025 34.4645 18.4861 34.4947C17.0993 34.8567 15.7167 35.2306 14.3321 35.598C13.6575 35.7768 13.2189 35.3383 13.3978 34.6627C13.7631 33.2847 14.1295 31.9078 14.5034 30.533C14.5476 30.3692 14.54 30.2399 14.456 30.0901C13.7049 28.7434 13.2512 27.3018 13.0756 25.7675C12.9032 24.2613 13.025 22.7798 13.4484 21.3296C14.1478 18.9355 15.4818 16.9552 17.4495 15.4134C18.9419 14.2444 20.6262 13.4935 22.4979 13.1778C22.9096 13.1077 23.3234 13.0582 23.7361 13ZM15.0422 33.943C15.1338 33.9258 15.1833 33.9193 15.2318 33.9075C16.3353 33.6133 17.4387 33.3203 18.5422 33.024C18.7706 32.9626 18.984 32.9755 19.1909 33.0929C19.3202 33.1673 19.4516 33.2395 19.582 33.3127C21.7447 34.5162 24.0497 34.889 26.4721 34.4139C28.4914 34.0184 30.249 33.0779 31.6757 31.5942C34.1487 29.0235 35.0647 25.9474 34.3729 22.4566C33.7802 19.4678 32.0884 17.2074 29.4408 15.7033C27.1886 14.4244 24.7652 14.0893 22.2436 14.6689C19.3557 15.3326 17.1822 16.9973 15.6995 19.5529C14.9387 20.8641 14.526 22.2885 14.4183 23.8055C14.3482 24.8 14.4301 25.7772 14.6489 26.7447C14.887 27.8028 15.2965 28.794 15.859 29.7195C16.0185 29.9824 16.0476 30.2442 15.9624 30.534C15.8568 30.8918 15.7642 31.2538 15.6683 31.6136C15.4614 32.3754 15.2577 33.1382 15.0422 33.943Z" fill="#23262E"/>
<path d="M27.0222 30.7159C26.1461 30.7428 25.2894 30.6135 24.4737 30.3011C21.8336 29.2894 19.9414 27.4815 18.8326 24.8806C18.2895 23.6081 18.0933 22.2807 18.4371 20.9145C18.7022 19.8587 19.2851 19.0312 20.2463 18.4893C20.8401 18.1542 21.5578 18.2059 22.0599 18.6681C22.5276 19.098 22.9899 19.5397 23.4101 20.016C24.0847 20.7799 23.95 21.7959 23.1289 22.4035C22.9791 22.5145 22.8164 22.6104 22.672 22.7279C22.6203 22.771 22.5664 22.8658 22.5782 22.9239C22.7862 23.9173 23.159 24.8256 23.9672 25.4925C24.5814 26 25.3067 26.2683 26.0771 26.4213C26.1385 26.4331 26.2388 26.3685 26.2873 26.3114C26.4985 26.0603 26.6633 25.7608 26.9047 25.5475C27.5232 25.0023 28.381 25.0325 29.02 25.6175C29.478 26.0366 29.9133 26.4816 30.3325 26.9395C30.8001 27.4502 30.8486 28.1678 30.4995 28.7722C29.8002 29.9822 28.701 30.536 27.3584 30.6943C27.2463 30.7062 27.1342 30.7094 27.0222 30.7159ZM26.7571 29.3282C26.9801 29.3077 27.2053 29.2991 27.4263 29.2635C28.1806 29.1429 28.8196 28.8315 29.2355 28.1527C29.3314 27.9965 29.3217 27.8855 29.1924 27.7594C28.8282 27.4039 28.4726 27.0397 28.1105 26.682C27.9381 26.5118 27.8605 26.5193 27.7194 26.7176C27.5157 27.0042 27.3185 27.2951 27.1148 27.5817C26.9392 27.8284 26.6903 27.9577 26.3961 27.8941C25.7991 27.7648 25.1946 27.6506 24.6202 27.4502C23.7226 27.1378 22.9543 26.612 22.3627 25.8513C21.6849 24.9797 21.3433 23.9723 21.1332 22.9035C21.0265 22.3605 21.1731 21.9726 21.6655 21.7043C21.881 21.5869 22.075 21.4285 22.2754 21.2852C22.4823 21.1376 22.4888 21.0632 22.3067 20.879C21.9489 20.517 21.5847 20.1614 21.2291 19.7973C21.1073 19.6723 21.0007 19.669 20.8552 19.7585C20.0405 20.2605 19.7528 21.046 19.6935 21.9413C19.6149 23.1147 19.9791 24.1835 20.5416 25.1909C21.3228 26.5883 22.4198 27.6819 23.8174 28.4619C24.7291 28.9705 25.6957 29.3077 26.7571 29.3282Z" fill="#23262E"/>
</svg>
