<svg width="57" height="57" viewBox="0 0 57 57" fill="none" xmlns="http://www.w3.org/2000/svg">
<path d="M39.6029 28.51C39.9041 28.2623 40.2219 28.0209 40.5291 27.7886C41.0222 27.4133 41.5333 27.0257 41.9994 26.5966C43.6421 25.0861 44.0392 22.7482 42.9886 20.7809C41.9365 18.8105 39.7557 17.8523 37.8028 18.4998C36.8421 18.8182 36.0058 19.515 35.198 20.1887L34.9357 20.4071C34.0559 21.1331 33.3979 21.4269 32.6351 20.787C31.9246 20.1902 31.9141 19.4919 32.6021 18.4537L32.8644 18.0569C33.7097 16.7818 34.582 15.462 35.3703 14.1177C36.4255 12.3181 36.3775 10.4662 35.2309 8.76194C34.1084 7.09307 32.4687 6.43629 30.3599 6.81313C28.5314 7.13922 27.1495 8.62659 26.7553 10.6984C26.6699 11.1491 26.598 11.6075 26.529 12.052C26.4556 12.5288 26.3777 13.021 26.2847 13.4994C26.1379 14.2469 25.7647 14.816 25.2311 15.1021C24.7065 15.3836 24.0546 15.3759 23.3921 15.0821C23.1298 14.9652 22.863 14.8345 22.6067 14.7084C22.1511 14.4838 21.6805 14.2531 21.1919 14.0808C19.7396 13.5717 18.1314 13.9008 16.9983 14.9391C15.9177 15.9281 15.4561 17.3832 15.7633 18.8275C15.9686 19.7903 16.6206 20.6425 17.2531 21.4654C17.3985 21.6545 17.5424 21.8422 17.6788 22.0298C18.1928 22.7328 18.6125 23.7449 17.7012 24.5801C16.9983 25.223 16.1425 25.1123 15.3497 24.274C14.4594 23.3311 13.4987 22.2836 12.4135 21.0747C10.9807 19.4781 9.20017 18.992 7.25925 19.6719C5.39777 20.3225 4.30366 21.8084 4.17627 23.8556C4.05187 25.8644 4.96313 27.4671 6.80962 28.4885C8.03712 29.1668 9.48044 29.9727 10.8818 30.7987C11.4408 31.1279 11.7556 31.4786 11.8455 31.8693C11.9354 32.2584 11.8065 32.7137 11.4528 33.2613C11.2145 33.6304 10.9432 33.995 10.6825 34.3487C10.2358 34.9517 9.7742 35.5746 9.43848 36.2622C8.95737 37.2466 8.58417 38.3002 8.22297 39.3184C8.06859 39.7522 7.90972 40.2013 7.74486 40.6366L7.66392 40.8519L8.06559 41.0119C8.12555 44.4958 10.1804 47.4782 13.3368 48.6395C14.2391 48.9717 15.1683 49.1317 16.0856 49.1317C18.5151 49.1317 20.8667 48.0073 22.4239 45.9708C23.0384 45.1664 23.6424 44.3343 24.2254 43.5283C24.7275 42.8361 25.2461 42.1194 25.7677 41.4272C26.4886 40.4705 27.2694 39.9675 28.0878 39.9306C28.9091 39.8952 29.7199 40.3228 30.5128 41.2057C30.7556 41.4764 30.9954 41.7517 31.2337 42.0255C31.6054 42.4531 31.9891 42.8946 32.3848 43.3145C34.8203 45.8924 38.4923 46.1631 41.1181 43.9574C43.708 41.781 44.1487 37.9464 42.1418 35.0347C41.6082 34.2611 41.0417 33.4951 40.4946 32.7537C40.093 32.2107 39.6778 31.6478 39.2791 31.0894C38.5163 30.0066 38.6002 29.3329 39.6029 28.51ZM37.1599 32.4276C37.6605 33.1413 38.1865 33.8519 38.6946 34.5395C39.1353 35.1362 39.5909 35.753 40.0285 36.3668C41.3759 38.2617 41.1781 40.5643 39.5489 41.9686C37.9377 43.3575 35.6401 43.1407 34.0859 41.4533C33.7861 41.1273 33.4894 40.7873 33.2031 40.4566C32.8014 39.9937 32.3848 39.5138 31.9486 39.0662C30.808 37.8941 29.3707 37.2927 27.9034 37.3773C26.4496 37.4588 25.1022 38.2079 24.1085 39.483C23.5285 40.2259 22.9664 41.0027 22.4224 41.7517C21.7584 42.6685 21.0705 43.616 20.3496 44.5081C18.9167 46.28 17.0013 46.9368 14.8101 46.403C12.6863 45.8862 11.306 44.4988 10.7064 42.2778C10.621 41.9594 10.588 41.6272 10.5521 41.2734C10.5356 41.1088 10.5191 40.9442 10.4966 40.7796L10.4816 40.6627L10.3407 40.5828C10.4531 40.2982 10.5611 40.0106 10.6675 39.7291C10.9597 38.9539 11.261 38.151 11.6507 37.425C11.9684 36.8343 12.3776 36.2714 12.7733 35.73C13.07 35.3224 13.3773 34.9009 13.65 34.4625C14.2855 33.4397 14.5028 32.3015 14.26 31.2602C14.0172 30.2173 13.3218 29.3037 12.3011 28.6869C10.9792 27.8855 9.67378 27.1657 8.10456 26.3074C7.04493 25.7275 6.5893 24.9815 6.67023 23.9602C6.74817 22.985 7.24726 22.3236 8.11505 22.0514C9.10125 21.7407 9.94806 22.016 10.7034 22.8912C11.7616 24.1156 12.7508 25.1999 13.7295 26.2074C15.4306 27.9593 17.7777 28.0347 19.4353 26.3904C21.1844 24.6554 21.2413 22.3144 19.5822 20.424C19.4593 20.2841 19.3184 20.1487 19.1835 20.0195C18.8928 19.7396 18.593 19.4519 18.5166 19.1489C18.3337 18.4229 18.2798 17.5154 18.5705 17.1248C18.8688 16.7233 19.7875 16.5095 20.426 16.571C20.8966 16.6156 21.3583 16.8663 21.8469 17.1324C22.0747 17.2555 22.3085 17.3832 22.5468 17.4893C23.8103 18.0538 25.2296 17.9953 26.4376 17.3324C27.6501 16.6664 28.4864 15.4836 28.7322 14.0839C28.8237 13.5609 28.9046 13.0287 28.984 12.515C29.053 12.0674 29.1234 11.6029 29.1999 11.1507C29.3722 10.1416 29.9417 9.52486 30.8935 9.32029C31.8677 9.10956 32.6695 9.42334 33.2091 10.2247C33.7621 11.0445 33.7831 11.9259 33.269 12.7703C32.7535 13.6194 32.2019 14.4669 31.6683 15.2852C31.2847 15.8743 30.8875 16.4849 30.5053 17.0909C29.1699 19.2135 29.3992 21.4131 31.1003 22.8297C32.7205 24.1786 34.8323 23.951 36.6098 22.2329C36.6997 22.1452 36.7882 22.0575 36.8781 21.9683C37.0924 21.753 37.2962 21.5484 37.5211 21.3715C38.4983 20.5963 39.8472 20.7332 40.5921 21.6807C41.3474 22.642 41.2335 23.8941 40.3178 24.7246C39.8816 25.1199 39.4005 25.4876 38.9359 25.8429C38.6062 26.0951 38.266 26.3551 37.9392 26.6258C36.0478 28.1962 35.751 30.4188 37.1599 32.4276Z" fill="#15B2B5"/>
<path d="M7.45244 13.2409C8.64547 13.2409 9.71559 12.7733 10.4755 11.9197C11.2938 10.9999 11.6655 9.74169 11.5216 8.37429C11.1559 4.91965 8.4776 1.8034 5.14882 0.965122C3.98277 0.671339 2.80323 0.880525 1.82753 1.55423C0.856321 2.22485 0.226835 3.26155 0.0544756 4.47206C-0.212307 6.34704 0.507106 8.52657 1.97891 10.3062C3.47169 12.1104 5.48754 13.2071 7.37151 13.2409C7.39848 13.2394 7.42546 13.2409 7.45244 13.2409ZM4.57479 3.43536C6.72403 3.86142 8.94372 6.47316 9.05613 8.70653C9.08761 9.34331 8.93323 9.86474 8.608 10.2108C8.30375 10.5338 7.85261 10.7061 7.29956 10.6923C6.18747 10.6738 4.86255 9.87551 3.84189 8.61116C2.8437 7.37451 2.33861 5.92867 2.52146 4.83967C2.6039 4.34747 2.8407 3.95063 3.20491 3.69376C3.5781 3.42459 4.0652 3.33384 4.57479 3.43536Z" fill="#15B2B5"/>
<path d="M19.032 10.1462C19.0904 10.1462 19.1489 10.1447 19.2073 10.1401C20.1965 10.0801 21.0658 9.52789 21.6578 8.58809C22.0895 7.90054 22.3458 7.12071 22.6171 6.29628C22.7385 5.92559 22.8644 5.54413 23.0082 5.16575L23.0397 5.08115L23.0082 4.99809C22.8644 4.62125 22.74 4.23826 22.6201 3.86757C22.3503 3.04005 22.097 2.25868 21.6593 1.57729C21.0359 0.603658 20.1411 0.0453164 19.1399 0.0022488C18.0923 -0.0392807 17.0656 0.495988 16.3162 1.47578C14.8114 3.44612 14.8489 6.85769 16.3956 8.77574C17.1016 9.65401 18.0548 10.1462 19.032 10.1462ZM18.9795 7.556C18.392 7.556 17.6981 6.49469 17.6801 5.11653C17.6681 4.24287 17.9918 3.30923 18.4669 2.84471C18.5913 2.7232 18.7787 2.58323 18.9885 2.58323C18.999 2.58323 19.008 2.58323 19.0185 2.58477C19.597 2.62168 20.2415 3.70453 20.237 5.09807C20.2325 6.4224 19.66 7.54677 18.987 7.556C18.984 7.556 18.981 7.556 18.9795 7.556Z" fill="#15B2B5"/>
<path d="M36.5424 48.5839C35.0481 48.4854 33.8685 49.073 33.2181 50.2435C32.5496 51.4463 32.6216 52.7522 33.4279 54.0196C34.6374 55.9238 36.394 56.9267 38.6466 56.9974H38.6496C38.6751 56.9974 38.7006 56.9974 38.7261 56.9974C40.072 56.9974 41.0717 56.4406 41.6982 55.3409C42.3606 54.1765 42.3172 52.9491 41.5678 51.6924C40.4242 49.7775 38.7336 48.73 36.5424 48.5839ZM38.8954 54.4011C38.8265 54.4288 38.7621 54.4549 38.7066 54.4811C37.1014 54.2719 36.1122 53.6812 35.5037 52.5722C35.2729 52.1508 35.2294 51.757 35.3883 51.4956C35.5322 51.2571 35.8319 51.1279 36.2396 51.1279C36.2726 51.1279 36.3071 51.1295 36.343 51.131C37.6979 51.1987 38.7486 51.8293 39.381 52.9522C39.5564 53.2644 39.6074 53.7874 39.4845 54.0273C39.3975 54.1965 39.1068 54.3149 38.8954 54.4011Z" fill="#15B2B5"/>
<path d="M56.4445 36.4665C55.3414 34.5084 53.5563 33.4241 51.2857 33.3302C49.8109 33.2718 48.7048 33.844 48.0828 34.9914C47.4233 36.2096 47.5013 37.5186 48.3076 38.7768C49.4602 40.5748 51.1433 41.6469 52.9223 41.7161H52.9313C54.6339 41.7161 55.9768 41.064 56.6168 39.9242C57.1804 38.9198 57.1174 37.6601 56.4445 36.4665ZM53.7047 39.1167C53.6223 39.1521 53.5488 39.1828 53.4844 39.2151C51.9511 38.9875 51.0129 38.4291 50.4463 37.4124C50.2515 37.0617 50.1691 36.5403 50.277 36.3373C50.3864 36.1296 50.872 35.9158 51.2377 35.9128C51.2482 35.9128 51.2572 35.9128 51.2677 35.9128C52.4607 35.9128 53.4499 36.4619 54.1333 37.5001C54.3776 37.8708 54.511 38.4445 54.4016 38.6583C54.2952 38.8675 53.9535 39.0106 53.7047 39.1167Z" fill="#15B2B5"/>
</svg>
