<svg width="73" height="41" viewBox="0 0 73 41" fill="none" xmlns="http://www.w3.org/2000/svg">
<path d="M9.49495 34.1419C10.3206 37.7333 13.0437 40.0175 16.4175 40.0281C19.8965 40.0388 22.6125 37.8019 23.4713 34.1845C33.3109 34.1845 43.1612 34.1845 53.0623 34.1845C53.4668 36.1221 54.4428 37.7061 56.1024 38.8334C57.4711 39.7632 58.9899 40.1121 60.633 40.0234C63.6673 39.8602 66.2685 37.5121 67.0386 34.1407C67.8182 34.1407 68.6214 34.1443 69.4246 34.1395C71.4805 34.1289 72.9923 32.6218 72.997 30.5647C73.0029 27.3282 72.9982 24.0905 72.9982 20.854C72.9982 18.9578 72.4399 17.2283 71.3362 15.7012C70.9092 15.1097 70.6643 14.5419 70.5779 13.7967C70.0291 9.08269 67.5981 5.53508 63.6412 3.00006C60.5136 0.999723 57.0902 -0.0140481 53.3616 0.000147029C48.456 0.017891 43.5515 -0.0010359 38.6459 0.00606168C34.7257 0.0119763 31.1071 1.09081 27.8138 3.20116C25.319 4.7993 22.8207 6.40335 20.4217 8.13871C19.1335 9.07086 17.7778 9.38907 16.2471 9.60436C9.644 10.5306 4.50181 13.7493 1.25703 19.6853C0.354454 21.3355 -0.000434875 23.1738 0.00193024 25.0664C0.00430298 26.538 -0.00515747 28.0096 0.00430298 29.48C0.0196838 32.0765 2.08035 34.1277 4.68516 34.1395C6.2762 34.1478 7.86724 34.1419 9.49495 34.1419ZM5.6457 17.6625C5.74152 17.5028 5.76636 17.4354 5.81131 17.388C8.87037 14.2202 12.5741 12.3074 16.9711 11.9383C18.5834 11.8022 19.9651 11.3965 21.2923 10.4442C23.7398 8.68995 26.2866 7.07525 28.7956 5.4085C31.837 3.38924 35.2 2.38967 38.8364 2.36601C43.6911 2.33289 48.547 2.34117 53.4018 2.36483C56.1119 2.37784 58.6907 2.99651 61.0885 4.27881C65.1719 6.4625 67.8241 9.68362 68.2204 14.4366C68.2996 15.3924 68.5622 16.1412 69.1975 16.8581C69.964 17.7228 70.3851 18.7851 70.5081 19.9574C67.6656 20.2685 66.0544 21.643 65.9349 23.7818C65.8758 24.8535 66.1277 25.8235 66.7926 26.6693C67.759 27.8996 69.0744 28.3597 70.6383 28.2651C70.6383 29.105 70.6714 29.8632 70.6288 30.6168C70.5909 31.2887 70.1793 31.724 69.5097 31.7677C68.6852 31.8222 67.8536 31.7808 67.0457 31.7808C66.2046 28.3231 63.5868 26.014 60.5041 25.9016C58.8279 25.8401 57.2984 26.2352 55.9368 27.2135C54.3777 28.3337 53.4491 29.8715 53.0646 31.7547C43.1801 31.7547 33.3322 31.7547 23.4938 31.7547C22.4717 28.0474 19.9118 25.9099 16.5216 25.9051C13.0674 25.9004 10.5312 27.9966 9.47012 31.7737C7.82347 31.7737 6.15672 31.8399 4.49944 31.7524C3.23843 31.6849 2.39855 30.6617 2.36189 29.3628C2.33823 28.5549 2.35597 27.7446 2.35597 26.9355C2.35597 26.2103 2.35597 25.4864 2.35597 24.7258C3.82754 24.7258 5.1749 24.7258 6.52107 24.7258C9.02179 24.7258 10.5927 23.3725 10.5974 21.2125C10.6022 19.043 9.03362 17.6648 6.55892 17.6637C6.2904 17.6625 6.02068 17.6625 5.6457 17.6625ZM55.3418 33.0015C55.3063 30.4795 57.4178 28.3171 59.9741 28.258C62.5198 28.1977 64.7272 30.3541 64.7555 32.927C64.7828 35.4573 62.6689 37.6256 60.1244 37.6741C57.5692 37.7214 55.3785 35.5827 55.3418 33.0015ZM11.7792 32.9885C11.7543 30.4642 13.8718 28.3077 16.4257 28.258C18.9738 28.2083 21.1752 30.3707 21.1929 32.94C21.2107 35.4715 19.0885 37.6351 16.5476 37.6729C13.9889 37.712 11.8052 35.5661 11.7792 32.9885ZM2.72859 22.3646C3.03734 21.63 3.29049 20.9771 3.5945 20.3477C3.66902 20.1951 3.91034 20.0354 4.0795 20.0307C5.08026 20.0035 6.08456 19.9917 7.08532 20.0331C7.73475 20.0591 8.21147 20.5749 8.23395 21.1569C8.25761 21.7566 7.76196 22.3351 7.08532 22.3528C5.67527 22.3907 4.26404 22.3646 2.72859 22.3646ZM70.5898 22.4321C70.5898 23.5807 70.5898 24.7305 70.5898 25.8767C69.1738 25.9323 68.244 25.18 68.2996 24.0704C68.3552 22.9632 69.3039 22.2795 70.5898 22.4321Z" fill="#15B2B5"/>
<path d="M35.1968 18.8349C38.6782 18.8349 42.1608 18.8597 45.6421 18.829C50.1645 18.7876 54.5437 17.924 58.7596 16.3129C60.9374 15.4801 62.2079 13.8122 62.3782 11.4783C62.5639 8.92668 61.4354 7.03044 59.1346 5.88181C57.5341 5.08215 55.8307 4.70598 54.0338 4.70953C48.59 4.72018 43.1461 4.72372 37.7035 4.70953C35.1625 4.70243 32.812 5.36014 30.6662 6.69922C27.6758 8.56588 24.7042 10.4645 21.7375 12.3702C20.2789 13.3071 19.6957 14.8354 20.1547 16.359C20.6302 17.9371 21.9232 18.8384 23.72 18.8384C27.5456 18.8396 31.3701 18.8384 35.1957 18.8384C35.1968 18.8373 35.1968 18.8361 35.1968 18.8349ZM44.7088 16.4477C44.5656 16.4631 44.4722 16.4832 44.3787 16.4832C37.4929 16.4856 30.6082 16.4844 23.7224 16.4868C23.0955 16.4868 22.6045 16.2715 22.4366 15.6244C22.2745 14.9963 22.6448 14.6213 23.1333 14.3126C26.0268 12.479 28.8835 10.5828 31.8267 8.83204C32.9599 8.15777 34.2824 7.79343 35.534 7.32854C35.8924 7.19487 36.3017 7.14991 36.6885 7.14755C39.3501 7.13217 42.0117 7.13927 44.7076 7.13927C44.7088 10.2196 44.7088 13.2976 44.7088 16.4477ZM47.1338 7.07539C49.5955 7.07539 51.9767 6.9843 54.3473 7.11324C55.5409 7.17831 56.7439 7.55211 57.8854 7.95194C59.2967 8.44641 60.0135 9.57374 60.0313 11.0619C60.0478 12.492 59.1606 13.6915 57.656 14.1588C55.6071 14.794 53.5382 15.3831 51.4468 15.8563C50.0556 16.1709 48.6101 16.2466 47.135 16.4371C47.1338 13.2396 47.1338 10.19 47.1338 7.07539Z" fill="#15B2B5"/>
<path d="M40.0725 23.5154C41.6221 23.5154 43.1292 23.5154 44.6895 23.5154C44.6895 22.7666 44.6895 22.0249 44.6895 21.2383C43.1623 21.2383 41.6375 21.2383 40.0725 21.2383C40.0725 21.9835 40.0725 22.7075 40.0725 23.5154Z" fill="#15B2B5"/>
</svg>
