<svg width="42" height="58" viewBox="0 0 42 58" fill="none" xmlns="http://www.w3.org/2000/svg">
<path d="M34.9721 56.2577C38.2535 55.5772 40.383 52.9815 40.3971 49.6453C40.4151 45.5265 40.4112 41.3386 40.4074 37.2887C40.4061 35.9673 40.4048 34.6483 40.4048 33.3294C40.4048 32.6502 40.4048 31.9722 40.4048 31.293V31.2751C40.4061 28.8467 40.4074 26.3366 40.3805 23.8698C40.3664 22.5994 39.9589 21.4797 39.1722 20.5413C38.5533 19.8046 37.9511 19.0411 37.3681 18.3044C36.8005 17.5868 36.2162 16.8463 35.623 16.1364C35.0208 15.4176 34.7261 14.5711 34.7235 13.5522C34.7222 13.1041 34.7158 12.6546 34.7107 12.2065C34.6966 11.0919 34.6825 9.94022 34.7325 8.80134C34.8106 7.0279 34.1251 5.25574 32.8502 3.94194C31.542 2.59367 29.7584 1.85059 27.8301 1.85059H27.7519C24.0361 1.88889 20.2627 1.87995 16.6135 1.87229H16.4559C14.9363 1.86846 13.4166 1.86591 11.897 1.86591H11.2307C7.16513 1.86846 4.29756 4.73482 4.25656 8.83581C4.25143 9.36312 4.2604 9.89937 4.26809 10.4177C4.3014 12.4325 4.33472 14.5162 3.57875 16.5654C3.16232 17.6941 2.92015 18.9236 2.68695 20.1123C2.5947 20.5783 2.50245 21.0507 2.39994 21.5129C2.34356 21.7683 2.27822 22.0325 2.21928 22.2662C2.04502 22.9684 1.86436 23.6949 1.86051 24.3869C1.82335 31.5241 1.82976 38.7825 1.83745 45.801L1.84129 49.5317C1.84129 50.0667 1.85923 50.5097 1.94508 50.9298C2.61264 54.2238 5.25982 56.3637 8.69245 56.379C11.592 56.3931 14.5121 56.3893 17.3362 56.3867C18.5893 56.3854 19.8424 56.3841 21.0955 56.3841H24.0643C27.233 56.3854 30.3273 56.3854 33.3589 56.3778C33.8894 56.3765 34.4506 56.3663 34.9721 56.2577ZM32.207 12.8794C32.2493 13.5165 32.5414 15.0077 32.5658 15.0971C32.9425 16.4722 32.3851 17.214 31.6945 17.8984C24.9343 24.595 18.0819 31.4258 11.4549 38.0318L10.7887 38.6957C9.08196 40.3964 7.37526 42.097 5.66856 43.7977C5.54555 43.9203 5.4187 44.0377 5.27135 44.1756L5.23291 44.2114C5.15988 44.2791 5.07916 44.3544 4.9869 44.4412L4.33856 45.0515V44.1629C4.33856 43.7185 4.33728 43.2857 4.33472 42.8631C4.32959 41.6846 4.32447 40.5726 4.36162 39.4567C4.37572 39.0277 4.70373 38.6127 4.97665 38.3408C10.8886 32.4357 16.9082 26.4374 22.7292 20.637L27.3726 16.01C28.2913 15.0946 29.2075 14.1766 30.1518 13.2317L32.1019 11.2808L32.207 12.8794ZM28.545 5.137C28.8795 4.79866 29.4074 4.41052 30.1274 4.95315C30.2082 5.01315 30.2902 5.07189 30.3735 5.13062C30.5913 5.28383 30.8091 5.43704 31.0039 5.63111C31.5805 6.20183 31.9648 6.69466 31.9661 7.24879C31.9674 7.79524 31.5945 8.27914 31.0359 8.83581L28.9435 10.9208C21.2224 18.6133 4.32831 35.4374 4.32831 35.4374L4.33856 34.5245V34.3126C4.33856 33.9295 4.33728 33.5478 4.336 33.1647C4.33215 32.031 4.32831 30.8704 4.35906 29.7277C4.36931 29.3408 4.66401 28.9667 4.91002 28.7216C9.61883 24.0154 14.4148 19.2364 19.0518 14.6158L21.3402 12.3355C21.9489 11.729 22.5575 11.1238 23.1661 10.5186C24.9343 8.75921 26.7627 6.94108 28.545 5.137ZM6.79227 8.14253C6.89349 6.21077 8.58738 4.52798 10.567 4.38881C11.5985 4.31604 12.6222 4.33519 13.6114 4.35179C14.0483 4.35945 14.4519 4.36711 14.8517 4.36711H15.7794L6.77561 13.3377V12.4133C6.77561 12.0112 6.77048 11.5975 6.76408 11.1761C6.75126 10.1828 6.73845 9.16522 6.79227 8.14253ZM4.30268 24.6895C4.32447 24.5044 4.33984 24.3269 4.35522 24.1571C4.38725 23.7856 4.418 23.4357 4.50257 23.0859C4.64608 22.4871 4.81008 21.8717 4.95487 21.329C5.15732 20.5694 5.36617 19.7829 5.53787 19.0066C5.69675 18.2827 6.08627 17.8269 6.48219 17.4425C7.76862 16.1926 9.05378 14.9056 10.2979 13.6607C10.781 13.1768 11.264 12.6942 11.7471 12.2116C12.2135 11.7456 12.6812 11.2808 13.1476 10.8148L13.3231 10.6399C15.1964 8.76942 17.1337 6.83383 19.0787 4.93399C19.4042 4.61608 19.9449 4.39137 20.4254 4.37349C21.4632 4.33519 22.4716 4.34157 23.5377 4.34796C23.9387 4.35051 24.3436 4.35306 24.7549 4.35306H25.6826L4.17455 25.7824L4.30268 24.6895ZM5.9812 52.9815L5.71084 52.7543C4.64607 51.8605 4.20402 50.6067 4.35906 48.9201C4.38469 48.6469 4.57048 48.4273 4.7678 48.2307C15.0657 37.9616 25.2828 27.7806 33.9201 19.1764C33.9816 19.1151 34.047 19.0666 34.1149 19.0168C34.1482 18.9913 34.1841 18.9657 34.2238 18.9351L34.5236 18.7027L37.1247 21.9483L5.9812 52.9815ZM15.4578 53.4169C15.3514 53.5229 14.9721 53.8663 14.5467 53.8753C13.8676 53.8881 13.1424 53.8944 12.193 53.8944C11.8214 53.8944 11.4537 53.8932 11.0898 53.8932H10.9463C10.6413 53.8919 10.3415 53.8919 10.0442 53.8919H9.11656L37.9037 25.2155V26.1399C37.9037 26.4642 37.9037 26.7949 37.905 27.1307V27.146C37.9076 28.2836 37.9101 29.4595 37.8896 30.652C37.8832 31.0312 37.5834 31.3709 37.454 31.4985C29.8635 39.0762 22.4627 46.4496 15.4578 53.4169ZM25.1624 53.422C24.8664 53.7157 24.5819 53.8676 24.3167 53.8727C23.4211 53.8893 22.5319 53.8906 21.8579 53.8906C21.4914 53.8906 21.1275 53.8906 20.7688 53.8893C20.4126 53.8881 20.0589 53.8881 19.7079 53.8881H18.7789L37.9037 34.8437V35.7681C37.9037 36.1128 37.9037 36.4601 37.905 36.8125C37.9076 37.9628 37.9101 39.1528 37.8883 40.3466C37.8819 40.6773 37.641 40.9875 37.4386 41.1893C33.3653 45.2609 29.2344 49.3772 25.1624 53.422ZM30.9308 53.8472C30.4209 53.8357 29.9391 53.8242 29.4509 53.8242H28.522L37.8819 44.5063V45.4307C37.8819 45.9069 37.8871 46.3845 37.8935 46.8466C37.9063 47.9421 37.9204 49.0708 37.864 50.1905C37.7743 51.9754 36.2483 53.6212 34.53 53.7859C33.9252 53.8434 33.2782 53.8702 32.4915 53.8702C31.9636 53.8715 31.4382 53.8587 30.9308 53.8472Z" fill="#15B2B5"/>
<path d="M33.6815 57.9992H8.39108C8.39108 57.9992 8.37698 57.9992 8.35136 57.9967C5.62473 57.7732 3.59258 57.1336 2.31255 56.0955C-0.130901 54.1153 -0.0309589 50.3935 0.0151682 49.6453V25.1236C0.0151682 24.2451 0.117673 23.3654 0.321401 22.51L1.94354 15.6831C2.12805 15.1954 2.27027 14.691 2.36765 14.1816C2.556 13.1959 2.52141 12.4656 2.46503 11.2565L2.4599 11.1531C2.40993 10.0653 2.35996 8.8945 2.31512 7.67645C2.30358 6.92188 2.433 4.31854 4.54715 2.24889C6.70103 0.13838 9.36103 0.0873093 10.1413 0.124336C18.548 -0.0671803 25.198 -0.0135558 28.0604 0.124336C28.819 0.161362 30.3975 0.237969 32.0632 1.15342C32.9371 1.63348 33.7161 2.26804 34.3773 3.03666C35.4203 4.24832 36.0507 5.78044 36.2531 7.58963L36.2544 7.61772V13.2138C36.2993 13.6249 36.4018 14.022 36.5606 14.3936C36.7528 14.8443 36.9771 15.1405 37.1103 15.3179C37.7266 16.1338 38.3032 16.8501 38.7671 17.4259C38.9503 17.6532 39.113 17.8549 39.2501 18.0285C39.5512 18.409 39.9638 18.9312 40.4609 19.673C41.5936 21.3647 41.7794 22.1423 41.8409 22.3977C41.9678 22.9262 42.019 23.474 41.9934 24.0255V49.4933C41.9934 51.9588 41.281 53.9097 39.8164 55.4584C38.3955 56.9612 36.2762 57.8396 33.6892 57.9992H33.6815ZM8.40261 57.4885H33.6662C35.378 57.3825 37.7663 56.882 39.4436 55.1073C40.8146 53.6569 41.4809 51.8209 41.4809 49.4921V24.0128C41.5052 23.497 41.4578 22.9977 41.3425 22.5164C41.2861 22.2827 41.1157 21.5716 40.0343 19.9565C39.5486 19.2313 39.1438 18.718 38.8478 18.3439C38.712 18.1715 38.5492 17.9711 38.3686 17.7451C37.9022 17.1667 37.323 16.4466 36.7016 15.6244C36.5632 15.4418 36.3069 15.1009 36.0891 14.594C35.9085 14.1714 35.7919 13.7207 35.7432 13.2534L35.7419 13.2266V7.63177C35.5497 5.93238 34.959 4.49729 33.9878 3.36862C33.3663 2.64596 32.6347 2.05099 31.8147 1.60029C30.254 0.742294 28.7549 0.669518 28.0348 0.635045C25.1813 0.497154 18.5416 0.443529 10.1439 0.635045H10.1349H10.126C9.411 0.599296 6.92014 0.640152 4.90592 2.61277C2.93783 4.5407 2.81739 6.96529 2.82764 7.66241C2.87377 8.87407 2.92246 10.0423 2.97243 11.1288L2.97755 11.2323C3.03521 12.4784 3.07109 13.2317 2.8712 14.2761C2.76998 14.8085 2.62135 15.3371 2.42915 15.8465L0.81983 22.6262C0.626352 23.4433 0.527691 24.2834 0.527691 25.1223V49.6683C0.484127 50.3539 0.37906 53.8689 2.63672 55.6985C3.83475 56.6701 5.77208 57.2715 8.39492 57.486L8.40261 57.4885Z" fill="#15B2B5"/>
</svg>
