<svg width="62" height="63" viewBox="0 0 62 63" fill="none" xmlns="http://www.w3.org/2000/svg">
<path d="M61.9988 31.1703C61.9915 29.3475 61.1704 27.6126 59.7441 26.4121C59.5574 26.2547 59.3549 26.1046 59.1585 25.9594C59.0023 25.8435 58.8412 25.7239 58.6863 25.5995C57.6102 24.7369 57.2722 23.4546 57.7835 22.1711C57.8518 21.9991 57.925 21.8283 57.9982 21.6575C58.0909 21.4415 58.1873 21.2182 58.2703 20.9962C59.4074 17.9668 58.0384 14.5579 55.1554 13.2329C54.3221 12.8498 53.3534 12.6961 52.4152 12.5485L52.2785 12.5265C50.9304 12.3118 49.9189 11.3833 49.6993 10.1596C49.6395 9.82894 49.6054 9.49221 49.5724 9.16523L49.5614 9.0603C49.243 5.97598 46.5576 3.53341 43.4501 3.49925C42.2716 3.48339 41.1808 3.90187 40.0815 4.36672C38.7285 4.93893 37.4291 4.58999 36.5165 3.40897C36.4177 3.28208 36.3225 3.15275 36.2274 3.02343C36.142 2.90752 36.0566 2.79283 35.9699 2.67815C35.0756 1.51421 33.9056 0.737025 32.4915 0.368566C32.3561 0.333184 32.2231 0.291702 32.0938 0.25144C32.0425 0.235579 31.9913 0.219718 31.9401 0.203857H30.0453C29.944 0.234359 29.844 0.263641 29.7427 0.292922C29.5109 0.360026 29.2718 0.430789 29.0387 0.505213C27.6698 0.943216 26.5596 1.83142 25.5469 3.30038C24.821 4.3533 23.7937 4.79374 22.5761 4.57291C22.1795 4.50092 21.8038 4.33499 21.4402 4.17517C21.3157 4.12026 21.1913 4.06536 21.0656 4.01412C18.4718 2.95632 15.6449 3.61394 13.8624 5.69171C12.9766 6.72388 12.4849 8.02203 12.3141 9.77648C12.1579 11.3882 11.1843 12.3618 9.57262 12.518C7.76937 12.6924 6.44316 13.2097 5.4 14.1455C3.3991 15.9415 2.77443 18.7379 3.80904 21.2695C3.86028 21.3951 3.91519 21.5196 3.97009 21.644C4.13114 22.0064 4.29707 22.3822 4.36905 22.7787C4.5911 24.0085 4.1348 25.0492 3.04894 25.7874C1.51532 26.8318 0.57831 28.0909 0.18301 29.6367C0.145188 29.7868 0.0988252 29.9332 0.0536828 30.0759C0.0353819 30.1332 0.018301 30.1894 0 30.2467V32.1329C0.00854045 32.1549 0.018301 32.1781 0.0280615 32.2C0.0634433 32.2818 0.100045 32.3672 0.119566 32.4636C0.392861 33.7788 1.03217 34.8964 2.02165 35.7846C2.27176 36.0079 2.54749 36.2165 2.81469 36.4178C2.94523 36.5166 3.077 36.6155 3.20633 36.7167C4.38369 37.6391 4.72409 38.9055 4.16652 40.2842C4.10552 40.4355 4.04207 40.5843 3.97741 40.7344C3.88468 40.9528 3.7883 41.1785 3.70411 41.4018C3.11116 42.9769 3.17339 44.6825 3.87858 46.2039C4.57524 47.7071 5.81605 48.8417 7.37163 49.3981C8.03412 49.6348 8.76982 49.736 9.4799 49.8336L9.76661 49.8739C11.0831 50.0593 12.0969 51.0366 12.2909 52.3043C12.3336 52.5836 12.3727 52.8935 12.4154 53.2766C12.6338 55.2702 13.7196 56.9881 15.3948 57.9922C17.0821 59.0036 19.1318 59.15 21.0156 58.3936C22.0368 57.9837 22.7554 57.7555 23.3508 57.7555C24.3073 57.7555 24.9479 58.3448 26.0166 59.7198C27.2367 61.29 29.0387 62.1953 30.9603 62.2039C30.9689 62.2039 30.9786 62.2039 30.9872 62.2039C32.9002 62.2039 34.6986 61.3144 35.9272 59.7613C36.0309 59.6295 36.1322 59.4916 36.231 59.3574C36.3579 59.1854 36.4885 59.0073 36.6275 58.8377C37.4633 57.825 38.7407 57.4907 39.9595 57.9629C40.1438 58.0349 40.3268 58.1154 40.5037 58.1923C40.727 58.2899 40.9576 58.3924 41.1881 58.4729C43.549 59.3086 45.7121 58.8792 47.6203 57.1979C48.8477 56.1157 49.5004 54.6212 49.6761 52.4934C49.7859 51.1611 50.7803 50.0923 52.0943 49.8934C52.4689 49.8373 52.841 49.797 53.1887 49.7616C54.8382 49.5921 56.3767 48.7099 57.4101 47.341C58.4362 45.9831 58.8596 44.2762 58.5741 42.6584C58.4508 41.9581 58.18 41.2615 57.9189 40.5892C57.8786 40.4855 57.8384 40.383 57.7993 40.2793C57.2637 38.8787 57.6114 37.6135 58.7778 36.7167C58.8876 36.6325 58.9974 36.5508 59.1084 36.4678C59.3342 36.2995 59.5672 36.1262 59.7819 35.9432C61.1996 34.7305 62.0061 32.9919 61.9988 31.1703ZM58.3788 34.3949C58.1897 34.5487 57.9933 34.6963 57.8042 34.839C57.6724 34.9379 57.5407 35.0367 57.4113 35.138C55.602 36.5532 54.9858 38.8445 55.8423 40.9747C55.8814 41.0723 55.9216 41.1687 55.9607 41.2651C56.3206 42.1436 56.6927 43.0513 56.5414 44.1042C56.262 46.0441 54.7687 47.4911 52.8251 47.7071L52.6665 47.7241C52.1285 47.7827 51.5721 47.8425 51.0719 48.0096C49.0722 48.677 47.907 50.0813 47.6106 52.1847C47.5959 52.2896 47.5813 52.3945 47.5679 52.4995C47.5178 52.8752 47.4666 53.262 47.3775 53.6402C46.9298 55.546 45.2009 56.7831 42.9731 56.7929H42.9414L42.9121 56.7831C42.7876 56.7404 42.6364 56.6904 42.4643 56.633C42.008 56.4818 41.3846 56.2743 40.7806 56.0389C38.6053 55.1897 36.3664 55.7924 34.9378 57.6115C34.8353 57.7421 34.7352 57.8738 34.6352 58.0068C34.5046 58.1801 34.3704 58.3582 34.2313 58.5302C33.503 59.4306 32.4927 59.987 31.3837 60.0944C31.2532 60.1066 31.1226 60.1139 30.9933 60.1139C30.0368 60.1139 29.1083 59.7723 28.3445 59.1317C27.959 58.8084 27.6503 58.3985 27.3526 58.0007L27.3209 57.958C25.6079 55.6777 23.4277 55.0872 20.8375 56.2036C19.8651 56.6233 18.8 56.9686 17.5982 56.6611C15.8584 56.217 14.6371 54.77 14.487 52.9753C14.3272 51.0744 13.6928 49.7494 12.4886 48.8063C11.493 48.0267 10.3181 47.8144 9.30055 47.7095C7.85233 47.5606 6.63471 46.8201 5.96123 45.6769C5.2963 44.5495 5.23529 43.1477 5.7953 41.8324C6.40534 40.3977 6.73719 39.169 6.36995 37.8367C6.06494 36.7338 5.49761 35.8663 4.6338 35.1843C4.49106 35.0721 4.34709 34.9623 4.20312 34.8525C4.01157 34.7073 3.8127 34.556 3.62115 34.401C2.63778 33.5995 2.07533 32.4306 2.07655 31.1923C2.07777 29.9515 2.6451 28.7802 3.63213 27.9786C3.80172 27.8407 3.97863 27.7078 4.15066 27.5797L4.31415 27.4576C6.46268 25.8362 7.06661 23.5815 6.01614 21.1072C5.6184 20.1714 5.30118 19.3149 5.44149 18.3157C5.72332 16.3038 7.19716 14.88 9.1944 14.6872C10.2424 14.5872 11.4479 14.3798 12.4532 13.6087C13.655 12.6863 14.2992 11.387 14.4809 9.51783C14.6225 8.06961 15.3496 6.85321 16.477 6.18095C17.6116 5.50382 19.0403 5.44281 20.397 6.01258C21.4878 6.47011 22.5651 6.86663 23.7607 6.68362C25.0943 6.47987 26.1667 5.86373 27.0391 4.79984C27.1403 4.67661 27.2404 4.55095 27.3404 4.42406C27.7089 3.95799 28.0908 3.47607 28.5629 3.10883C30.2832 1.76676 32.7429 2.05835 34.163 3.77132C34.3265 3.96898 34.4827 4.17639 34.634 4.37648C34.7377 4.51434 34.8414 4.65099 34.9475 4.78642C36.3762 6.59943 38.6175 7.19726 40.7953 6.34444C40.899 6.30418 41.0027 6.2627 41.1064 6.22121C41.6652 5.99794 42.2423 5.76613 42.8401 5.6734C43.9296 5.50382 45.0118 5.77833 45.8878 6.44693C46.7834 7.13016 47.3714 8.17576 47.5008 9.31652L47.5081 9.38118C47.5654 9.88995 47.6252 10.4158 47.7472 10.9124C48.2267 12.8693 49.9104 14.3395 51.9357 14.5713L52.1699 14.597C52.4933 14.6323 52.8288 14.6689 53.1558 14.7336C54.4307 14.9849 55.4617 15.7158 56.0583 16.7906C56.6549 17.8667 56.7293 19.1868 56.262 20.413C56.2059 20.5594 56.1474 20.707 56.0888 20.8547C55.8692 21.4086 55.641 21.982 55.5446 22.5567C55.2323 24.3989 55.8655 25.9826 57.4248 27.2649C57.5468 27.3649 57.6712 27.4637 57.7969 27.5638C58.2483 27.9213 58.7156 28.291 59.0718 28.7485C60.4261 30.4907 60.1223 32.9699 58.3788 34.3949Z" fill="#15B2B5"/>
<path d="M54.6858 28.0165C53.8573 22.0211 51.1463 17.0139 46.6272 13.1341C40.9466 8.25753 34.2302 6.41645 26.6645 7.6597C24.8259 7.96227 22.947 8.55279 21.0779 9.41781L20.9144 9.49345V9.49223C20.9132 9.49223 20.9119 9.49345 20.9119 9.49345L20.7265 9.58374C20.7192 9.5874 20.7131 9.59106 20.7057 9.59472L20.6801 9.60814C19.1502 10.3743 17.7007 11.2906 16.3733 12.3313C14.9287 13.4648 13.6025 14.7617 12.4313 16.1855L12.4008 16.2148C12.2312 16.3441 12.0836 16.5344 11.9347 16.7345C7.91825 22.1199 6.37731 28.2092 7.35458 34.8305C8.08662 39.7889 10.3108 44.2116 13.9637 47.9743C20.4459 54.6492 30.6493 56.9173 39.3532 53.6171C49.7421 49.6775 56.1901 38.9116 54.6858 28.0165ZM30.9933 53.018C28.6325 53.018 26.2924 52.6313 24.0109 51.8626C18.1204 49.8776 13.3427 45.4512 10.9025 39.7193C8.4746 34.0155 8.59295 27.5455 11.2258 21.9662C11.7249 20.9084 12.3812 19.9104 13.0169 18.9453C13.2121 18.6476 13.4073 18.3511 13.5989 18.0522L13.6086 18.0388C14.7897 16.5137 16.15 15.1436 17.6531 13.965C18.8476 13.028 20.147 12.2032 21.5146 11.5114L21.5317 11.5041C21.5781 11.487 21.6245 11.4675 21.672 11.4443C24.4318 10.1657 27.2977 9.45319 30.4345 9.26408L30.4492 9.26286L30.4638 9.26408C30.903 9.30801 31.3508 9.34461 31.7839 9.38121C32.7234 9.45807 33.6945 9.5386 34.6401 9.69599C37.6793 10.2011 40.5135 11.3162 43.0622 13.0097C45.5157 14.6397 47.5862 16.7223 49.2186 19.1991C50.8535 21.6807 51.9516 24.4124 52.4811 27.3174C53.0313 30.3346 52.9374 33.3848 52.2005 36.3837C51.4562 39.4143 50.1154 42.1838 48.2158 44.6154C46.3869 46.9567 44.1334 48.8735 41.5152 50.3107C38.8957 51.7504 36.0663 52.6264 33.1065 52.9143C32.4025 52.9839 31.6973 53.018 30.9933 53.018Z" fill="#15B2B5"/>
<path d="M16.32 27.2639H14.36C14.4133 26.2105 14.7933 25.3439 15.5 24.6639C16.2067 23.9839 17.18 23.6439 18.42 23.6439C19.6333 23.6439 20.5933 24.0105 21.3 24.7439C21.94 25.3972 22.26 26.2439 22.26 27.2839C22.26 27.9505 22.1067 28.5372 21.8 29.0439C21.4933 29.5239 21.0933 29.8972 20.6 30.1639C21.16 30.3772 21.6 30.7305 21.92 31.2239C22.2933 31.7705 22.48 32.4572 22.48 33.2839C22.48 34.5105 22.1 35.5039 21.34 36.2639C20.5667 37.0372 19.48 37.4239 18.08 37.4239C16.7867 37.4239 15.7933 37.0505 15.1 36.3039C14.4467 35.6105 14.0667 34.7039 13.96 33.5839H15.92C16.0267 34.1839 16.2667 34.6639 16.64 35.0239C17.0667 35.4239 17.6067 35.6239 18.26 35.6239C18.8867 35.6239 19.4067 35.4372 19.82 35.0639C20.2867 34.6239 20.52 33.9972 20.52 33.1839C20.52 32.5172 20.32 31.9905 19.92 31.6039C19.5067 31.2039 18.9333 31.0039 18.2 31.0039H17.8V29.2839H18.08C18.8267 29.2839 19.3933 29.0905 19.78 28.7039C20.1267 28.3572 20.3 27.8839 20.3 27.2839C20.3 26.7372 20.1267 26.2905 19.78 25.9439C19.4333 25.6105 18.96 25.4439 18.36 25.4439C17.72 25.4439 17.2267 25.6239 16.88 25.9839C16.7467 26.1305 16.6333 26.3105 16.54 26.5239C16.4467 26.7239 16.3867 26.8839 16.36 27.0039C16.3333 27.1239 16.32 27.2105 16.32 27.2639ZM31.3272 23.4039L32.8072 24.5039L29.6272 28.5239C29.8939 28.4705 30.1739 28.4439 30.4672 28.4439C31.7205 28.4439 32.7472 28.8572 33.5472 29.6839C34.3339 30.5105 34.7272 31.5505 34.7272 32.8039C34.7272 34.1772 34.2872 35.2972 33.4072 36.1639C32.5539 37.0039 31.4072 37.4239 29.9672 37.4239C28.5139 37.4239 27.3672 36.9905 26.5272 36.1239C25.7539 35.3105 25.3672 34.3039 25.3672 33.1039C25.3672 32.2239 25.5805 31.3705 26.0072 30.5439C26.1005 30.3572 26.1939 30.1839 26.2872 30.0239C26.3939 29.8505 26.5072 29.6705 26.6272 29.4839C26.7605 29.2972 26.8605 29.1639 26.9272 29.0839C26.9939 28.9905 27.1139 28.8305 27.2872 28.6039C27.4739 28.3639 27.5872 28.2172 27.6272 28.1639L31.3272 23.4039ZM31.9472 30.9239C31.4539 30.4305 30.8272 30.1839 30.0672 30.1839C29.3072 30.1839 28.6672 30.4305 28.1472 30.9239C27.6272 31.4172 27.3672 32.0772 27.3672 32.9039C27.3672 33.7305 27.6272 34.3905 28.1472 34.8839C28.6672 35.3772 29.3072 35.6239 30.0672 35.6239C30.8272 35.6239 31.4539 35.3772 31.9472 34.8839C32.4672 34.3639 32.7272 33.7039 32.7272 32.9039C32.7272 32.1039 32.4672 31.4439 31.9472 30.9239ZM45.2744 23.8639V25.7439H41.1544L40.4944 27.9639C40.761 27.9372 40.9677 27.9239 41.1144 27.9239C42.3677 27.9239 43.3944 28.3172 44.1944 29.1039C45.061 29.9439 45.4944 31.0839 45.4944 32.5239C45.4944 33.9772 45.041 35.1572 44.1344 36.0639C43.2144 36.9705 41.981 37.4239 40.4344 37.4239C39.421 37.4239 38.5677 37.2239 37.8744 36.8239C37.2344 36.4372 36.7077 35.9239 36.2944 35.2839L37.8344 34.0039C38.021 34.4572 38.361 34.8439 38.8544 35.1639C39.3077 35.4705 39.8877 35.6239 40.5944 35.6239C41.4344 35.6239 42.1144 35.3772 42.6344 34.8839C43.2077 34.3105 43.4944 33.5572 43.4944 32.6239C43.4944 31.6905 43.2277 30.9705 42.6944 30.4639C42.1744 29.9705 41.4477 29.7239 40.5144 29.7239C39.981 29.7239 39.461 29.8172 38.9544 30.0039C38.501 30.1772 38.1077 30.3772 37.7744 30.6039L39.7544 23.8639H45.2744Z" fill="#15B2B5"/>
</svg>
