<svg width="60" height="58" viewBox="0 0 60 58" fill="none" xmlns="http://www.w3.org/2000/svg">
<path d="M45.4154 27.542C45.4154 30.4537 45.3929 33.2686 45.43 36.0835C45.4396 36.8509 45.1557 37.3055 44.5071 37.6763C39.7474 40.4009 34.991 43.132 30.2604 45.9066C29.4295 46.3951 28.7261 46.5176 27.9564 45.8969C27.8645 45.8228 27.7467 45.7841 27.5708 45.6906C27.6112 46.5676 27.0578 46.9207 26.364 47.0948C25.5815 47.2915 25.2072 47.7606 24.8699 48.5087C24.373 49.613 24.1923 50.5787 24.8941 51.6347C25.1733 52.0539 24.9958 52.4844 24.6489 52.831C23.8938 53.5839 23.1355 54.3336 22.3885 55.0945C22.0013 55.4895 21.5366 55.6282 21.0816 55.3363C20.0829 54.6963 19.1874 54.835 18.129 55.3025C17.2965 55.6701 16.8189 56.1183 16.5511 56.9566C16.2381 57.9368 16.0896 57.9933 15.0635 57.9949C14.097 57.9965 13.1306 57.9836 12.1657 57.9997C11.6059 58.0094 11.1993 57.7788 11.0783 57.2452C10.8234 56.1263 10.1425 55.5766 9.06795 55.1655C8.19831 54.8317 7.53196 54.7866 6.72685 55.2122C5.85721 55.6717 5.63778 55.5879 4.93271 54.8833C4.26313 54.2159 3.60324 53.5371 2.92237 52.881C2.50287 52.4763 2.37864 52.0055 2.67551 51.5219C3.2628 50.5658 3.18697 49.7178 2.72553 48.6812C2.3383 47.8154 1.90106 47.2882 1.00722 47.0174C0.0827194 46.7369 0.00688788 46.5466 0.00688788 45.5648C0.00688788 44.5991 0.0214088 43.6334 0.000434131 42.6677C-0.0108599 42.1115 0.197273 41.6923 0.734548 41.5682C1.84782 41.3102 2.41413 40.6492 2.82879 39.5706C3.17084 38.6791 3.21763 37.9923 2.77393 37.1701C2.33346 36.3527 2.4222 36.1109 3.05951 35.4708C3.74199 34.7873 4.43254 34.1117 5.10535 33.4185C5.52323 32.9896 5.99758 32.8413 6.51388 33.167C7.44483 33.7538 8.31609 33.77 9.28737 33.1944C9.90209 32.83 10.6056 32.751 10.8621 31.8579C11.2445 30.5294 11.3332 30.5536 12.795 30.4246C12.795 30.2215 12.795 30.0087 12.795 29.7959C12.795 26.2748 12.8079 22.7538 12.7837 19.2327C12.7789 18.5669 13.0144 18.1639 13.592 17.8334C18.5082 15.0168 23.413 12.1826 28.313 9.33706C28.868 9.01462 29.3488 9.01784 29.8861 9.34512C30.7606 9.87876 31.6641 10.364 32.5386 10.8977C32.8452 11.0847 33.1065 11.1298 33.426 10.9605C33.6551 10.8396 33.9036 10.7429 34.1537 10.6752C34.5151 10.5768 34.7232 10.3818 34.8152 10.0013C34.9039 9.63531 35.0249 9.24839 35.2363 8.94368C35.7429 8.21335 35.5896 7.5588 35.2169 6.83009C34.7071 5.83213 34.7732 5.66608 35.5509 4.88577C36.206 4.23122 36.8691 3.58473 37.5128 2.9205C37.9178 2.50133 38.3922 2.38686 38.8746 2.67867C39.8281 3.25906 40.68 3.19619 41.7126 2.73026C42.5742 2.34172 43.1147 1.91449 43.3777 1.00843C43.6423 0.0959268 43.8456 0.0104802 44.7701 0.008868C45.7365 0.0072558 46.703 0.0282144 47.6678 0.000806998C48.2745 -0.015315 48.7069 0.208781 48.8569 0.794009C49.1231 1.83872 49.7217 2.40621 50.7737 2.80765C51.7046 3.16233 52.4242 3.22198 53.2777 2.74477C53.9973 2.34333 54.3023 2.44651 54.8815 3.02207C55.5801 3.71693 56.2674 4.42468 56.9789 5.10826C57.4194 5.53065 57.534 6.01915 57.2258 6.52054C56.6627 7.43627 56.7256 8.23915 57.1564 9.24839C57.5582 10.1899 58.0374 10.7768 59.0054 11.0121C59.6637 11.1717 59.9444 11.6022 59.9186 12.2987C59.8799 13.324 59.8977 14.351 59.9138 15.3764C59.9219 15.9116 59.7008 16.3114 59.1974 16.4291C58.0599 16.6919 57.4775 17.3674 57.0725 18.4734C56.7627 19.3198 56.6885 19.9679 57.1129 20.7611C57.5969 21.6639 57.5098 21.88 56.7821 22.6087C56.1416 23.2487 55.4914 23.8791 54.8637 24.532C54.4184 24.9964 53.9279 25.1801 53.36 24.8174C52.4694 24.2499 51.6724 24.3434 50.6865 24.7465C49.712 25.1447 49.1393 25.6622 48.8924 26.6473C48.7278 27.3034 48.2567 27.571 47.5791 27.5452C46.8853 27.5211 46.1851 27.542 45.4154 27.542ZM30.0781 43.6963C30.2653 43.6011 30.354 43.5608 30.4379 43.5125C34.6474 41.0877 38.8536 38.6565 43.0695 36.2431C43.4132 36.0464 43.46 35.8029 43.46 35.4563C43.4519 30.7116 43.4551 25.9669 43.4535 21.2222C43.4535 21.0497 43.4341 20.8772 43.4212 20.6402C43.2212 20.7369 43.0792 20.795 42.9469 20.8707C38.7907 23.2665 34.6377 25.667 30.4734 28.0515C30.1362 28.2449 30.07 28.4739 30.0717 28.8253C30.0813 33.5894 30.0781 38.355 30.0781 43.1191C30.0781 43.2787 30.0781 43.4383 30.0781 43.6963ZM14.8134 56.0538C14.9586 55.691 15.1216 55.367 15.2184 55.022C15.4071 54.3529 15.8121 54.0063 16.4978 53.8289C17.19 53.6516 17.8805 53.3759 18.492 53.0116C19.1729 52.6053 19.7602 52.5827 20.4685 52.9213C21.5527 53.4388 21.1897 53.4968 22.0642 52.644C22.8709 51.8556 22.8903 51.8347 22.3901 50.8141C22.0948 50.2112 22.0964 49.6969 22.4562 49.1213C22.7418 48.6667 23.0322 48.1653 23.1242 47.6494C23.3452 46.4128 24.0132 45.6954 25.2249 45.4149C25.3766 45.3794 25.5153 45.0973 25.5718 44.9022C25.6315 44.6991 25.5847 44.4637 25.5847 44.2428C25.5847 43.1916 25.5976 43.1481 24.6037 42.8289C23.8664 42.5919 23.505 42.1405 23.3114 41.4102C23.1387 40.7572 22.8919 40.0978 22.5369 39.5287C22.1029 38.8307 22.0271 38.1938 22.4772 37.5183C22.8951 36.8928 22.8273 36.3833 22.1852 35.9706C22.1691 35.9593 22.1561 35.9432 22.1416 35.9287C21.3704 35.1564 21.3672 35.1516 20.3555 35.6046C19.8683 35.8223 19.4294 35.969 18.8728 35.6885C17.9999 35.25 17.0561 34.9533 16.1703 34.5374C15.8541 34.389 15.5798 34.0972 15.3636 33.8119C15.1893 33.5813 15.1006 33.2686 15.0296 32.98C14.9247 32.556 14.6956 32.3754 14.26 32.4399C14.1019 32.4641 13.9389 32.4431 13.7776 32.4431C12.703 32.4431 12.6691 32.4318 12.3255 33.4588C12.0964 34.1456 11.6736 34.489 10.9912 34.6841C10.2845 34.8872 9.58263 35.1693 8.94371 35.5321C8.3177 35.8868 7.78204 35.9206 7.13828 35.5966C6.17506 35.1113 6.15892 35.1435 5.40222 35.9013C4.66004 36.6429 4.62454 36.6622 5.09567 37.5957C5.42965 38.2583 5.41029 38.8129 5.02629 39.4546C4.68101 40.0333 4.4035 40.6798 4.2357 41.3312C4.0308 42.1292 3.65487 42.6886 2.82556 42.8531C2.09306 42.9998 1.8575 43.3916 1.91236 44.1509C1.99464 45.2859 1.92526 45.3117 3.04338 45.7115C3.65164 45.9292 3.98078 46.2903 4.15503 46.9239C4.35026 47.6333 4.61002 48.3523 4.99241 48.9746C5.42803 49.6824 5.48128 50.3256 5.0392 50.9899C4.62938 51.6057 4.75362 52.0249 5.29896 52.5102C6.19119 53.3034 6.16699 53.363 7.25444 52.8471C7.82076 52.5779 8.29672 52.6343 8.84852 52.9116C9.61329 53.2969 10.4474 53.5452 11.2235 53.9095C11.5639 54.0692 12.056 54.3287 12.106 54.6092C12.3594 56.0151 13.2467 56.2472 14.4423 56.057C14.5456 56.0409 14.6488 56.0538 14.8134 56.0538ZM39.1327 14.6863C39.2747 9.95131 41.7917 6.97841 45.7285 6.77688C49.4797 6.58503 52.6872 9.22743 53.1244 12.9226C53.3326 14.6783 52.9437 16.3259 51.9015 17.7753C50.3203 19.9744 48.1115 20.8901 45.438 20.7917C45.438 22.4023 45.438 23.9468 45.438 25.5155C45.5929 25.5332 45.7301 25.559 45.8672 25.5639C47.1999 25.6042 47.2177 25.609 47.6791 24.3628C47.8727 23.8388 48.1954 23.5696 48.7262 23.4019C49.4861 23.1617 50.2477 22.8763 50.9447 22.4942C51.5885 22.1412 52.1386 22.0767 52.805 22.4152C53.7488 22.894 53.7682 22.8586 54.491 22.1347C55.2622 21.3641 55.3026 21.3431 54.8169 20.3935C54.4733 19.7229 54.5314 19.1779 54.9008 18.5379C55.2574 17.9188 55.5317 17.2336 55.7205 16.5436C55.9157 15.8294 56.2884 15.4151 56.9935 15.1829C57.997 14.8524 57.9841 14.8153 57.9841 13.7835C57.9841 12.7114 57.9938 12.6856 56.9741 12.3358C56.3045 12.1068 55.9173 11.7215 55.7366 11.0154C55.564 10.3431 55.3139 9.66111 54.9492 9.07588C54.5023 8.35845 54.42 7.69423 54.8847 7.00904C55.309 6.38512 55.1429 5.97078 54.612 5.49357C53.7359 4.70682 53.7634 4.6649 52.6565 5.16468C52.1951 5.37266 51.7724 5.43715 51.2771 5.20499C50.3913 4.79065 49.4603 4.47305 48.5729 4.06194C48.2696 3.92168 47.8469 3.65728 47.8033 3.39449C47.5662 1.97575 46.6578 1.76939 45.4719 1.95157C45.3541 1.9693 45.2331 1.96769 45.1024 1.97736C44.9653 2.31915 44.8023 2.64643 44.7055 2.98983C44.5168 3.65889 44.1053 4.00229 43.4229 4.17802C42.7323 4.35697 42.0401 4.62943 41.4286 4.9954C40.7462 5.40329 40.1573 5.42425 39.4522 5.08085C38.347 4.54076 38.6987 4.54721 37.8581 5.36299C37.0514 6.14651 37.0336 6.16908 37.5322 7.19283C37.8258 7.79579 37.8194 8.30686 37.466 8.88564C37.1563 9.3951 36.9062 9.95776 36.7271 10.5269C36.4689 11.3459 36.2947 12.1923 35.1346 12.3793C36.5399 13.1918 37.8016 13.9189 39.1327 14.6863ZM14.7714 30.4069C16.2284 30.6149 16.3107 30.5923 16.6221 31.7112C16.8705 32.6011 17.5014 32.8284 18.2081 33.196C19.2197 33.7216 20.0926 33.7796 21.0461 33.1557C21.5059 32.8558 21.9674 32.9719 22.3562 33.3653C23.1226 34.1359 23.8922 34.9033 24.6602 35.6707C25.0313 36.0415 25.1523 36.4849 24.8732 36.9299C24.2633 37.8988 24.3294 38.7694 24.8119 39.8286C25.1959 40.6734 25.625 41.1861 26.4931 41.4569C27.445 41.7536 27.5386 41.9357 27.5337 42.9466C27.5321 43.3609 27.6644 43.5899 28.0904 43.6157C28.1049 43.5592 28.1226 43.5205 28.1226 43.4802C28.1259 38.5324 28.1291 33.5829 28.1226 28.6351C28.1226 28.4932 28.0678 28.2804 27.9677 28.2208C26.8916 27.5775 25.7993 26.9584 24.6957 26.3232C24.665 26.4264 24.6554 26.4457 24.6554 26.4635C24.6505 28.0918 24.6521 29.7217 24.6376 31.35C24.6295 32.3722 23.9019 32.8042 23.0161 32.3045C21.6334 31.5258 20.2668 30.7197 18.8857 29.9361C18.4404 29.683 18.229 29.338 18.2371 28.8124C18.2581 27.4856 18.25 26.1571 18.2419 24.8303C18.2371 24.0903 18.4517 23.2084 18.1258 22.649C17.7999 22.0879 16.9254 21.8413 16.2865 21.4656C15.7992 21.1803 15.3039 20.9078 14.7714 20.6063C14.7714 23.9452 14.7714 27.1777 14.7714 30.4069ZM46.156 8.71475C42.5516 8.71636 40.0911 12.4051 41.5077 15.7085C41.6239 15.9777 41.8643 16.2405 42.116 16.3985C42.9485 16.9208 43.8165 17.3884 44.662 17.8898C44.8653 18.0107 45.1299 18.1445 45.2073 18.3364C45.3929 18.7958 45.7494 18.8168 46.1334 18.8168C48.9214 18.8232 51.2174 16.5436 51.2206 13.7722C51.2238 10.9863 48.9473 8.71314 46.156 8.71475ZM15.7685 18.8974C16.7834 19.4842 17.7482 20.0147 18.684 20.5918C19.0551 20.8208 19.3342 20.8272 19.7182 20.6047C23.8148 18.2219 27.9242 15.86 32.0288 13.4901C32.1901 13.3966 32.3369 13.2805 32.5338 13.1451C31.5221 12.5615 30.5718 12.0407 29.6506 11.47C29.2617 11.2282 28.9761 11.2185 28.5663 11.4571C24.4892 13.8335 20.3975 16.1841 16.309 18.5427C16.1413 18.6395 15.9847 18.7555 15.7685 18.8974ZM25.6218 24.5869C26.706 25.2124 27.7064 25.767 28.6809 26.3651C29.0068 26.565 29.2375 26.5279 29.5473 26.349C33.6454 23.9694 37.7516 21.6043 41.8546 19.2327C42.0321 19.1296 42.1999 19.0103 42.4322 18.8603C41.3835 18.2557 40.4009 17.7141 39.4457 17.1272C39.1037 16.916 38.8584 16.9337 38.5196 17.1304C35.972 18.6185 33.4099 20.0856 30.8542 21.5624C29.1343 22.5523 27.4159 23.5486 25.6218 24.5869ZM21.1768 22.0219C21.9125 22.4459 22.5595 22.7764 23.1581 23.1778C23.5372 23.4325 23.8131 23.3777 24.181 23.1633C27.879 21.0126 31.5867 18.8797 35.2911 16.7403C35.8381 16.4243 36.3818 16.1035 37.0094 15.7359C36.3028 15.3264 35.6671 14.9878 35.0653 14.5977C34.7006 14.3623 34.4231 14.3575 34.0343 14.5848C30.3217 16.75 26.5947 18.891 22.8725 21.0384C22.3385 21.3479 21.806 21.6575 21.1768 22.0219ZM22.6821 29.8571C22.6821 28.2933 22.687 26.8713 22.6741 25.4494C22.6724 25.314 22.5902 25.1205 22.4837 25.056C21.7544 24.611 21.009 24.1919 20.1797 23.7147C20.1797 25.2817 20.1748 26.7408 20.1894 28.1982C20.191 28.3094 20.291 28.4642 20.391 28.5239C21.109 28.9559 21.8367 29.3686 22.6821 29.8571Z" fill="#15B2B5"/>
<path d="M48.339 49.1858C48.339 48.8924 48.339 48.6522 48.339 48.412C48.339 42.5387 48.3374 36.6639 48.3422 30.7906C48.3422 30.5327 48.3503 30.2634 48.4197 30.0184C48.5503 29.5541 48.8924 29.3348 49.3716 29.3509C49.8556 29.367 50.167 29.6234 50.267 30.0909C50.3203 30.3424 50.3251 30.6101 50.3251 30.8696C50.3284 37.125 50.3284 43.3819 50.3267 49.6372C50.3267 50.9641 50.0783 51.2059 48.7294 51.2059C43.5374 51.2059 38.3454 51.2059 33.1549 51.2059C32.9339 51.2059 32.7145 51.2059 32.3869 51.2059C32.5693 51.4074 32.708 51.5332 32.8129 51.6831C33.0856 52.0717 33.092 52.4924 32.8016 52.8568C32.4999 53.2389 32.0433 53.4291 31.627 53.1293C30.617 52.4005 29.6264 51.6412 28.6857 50.827C28.2275 50.4304 28.3663 49.8081 28.9132 49.3712C29.7151 48.7312 30.525 48.1024 31.3398 47.4801C31.8448 47.0948 32.3837 47.1174 32.75 47.5107C33.1291 47.9186 33.0823 48.4652 32.6257 48.9537C32.5741 49.0101 32.5225 49.0665 32.4176 49.1826C37.7452 49.1858 43.0034 49.1858 48.339 49.1858Z" fill="#15B2B5"/>
<path d="M25.8462 4.25688C25.6252 4.02311 25.4703 3.89413 25.3605 3.73452C25.0863 3.34115 25.1024 2.93487 25.4122 2.57052C25.7365 2.19165 26.1834 2.03688 26.5948 2.33513C27.5871 3.05418 28.5552 3.80869 29.4909 4.59866C29.8943 4.93884 29.8507 5.58694 29.4264 5.9384C28.5293 6.68324 27.6113 7.40389 26.669 8.09069C26.2463 8.39701 25.78 8.3035 25.4202 7.91012C25.0717 7.52964 25.0943 7.01374 25.4606 6.60263C25.5525 6.49945 25.6606 6.41078 25.8284 6.25117C20.4751 6.25117 15.2024 6.25117 9.83606 6.25117C9.83606 6.49784 9.83606 6.75256 9.83606 7.00729C9.83606 12.8418 9.83606 18.6748 9.83606 24.5093C9.83606 24.7302 9.84252 24.9527 9.82154 25.1719C9.76669 25.7572 9.39076 26.1102 8.84703 26.1054C8.31459 26.1006 7.92898 25.7265 7.87574 25.1542C7.86283 25.014 7.8709 24.8721 7.8709 24.7318C7.8709 18.3749 7.8709 12.018 7.8709 5.6611C7.8709 4.55836 8.16777 4.25849 9.252 4.25849C14.5247 4.25849 19.7974 4.25849 25.0701 4.25849C25.2896 4.25688 25.5106 4.25688 25.8462 4.25688Z" fill="#15B2B5"/>
<path d="M13.7873 51.2478C9.90216 51.2607 6.77209 48.1491 6.76564 44.2653C6.75757 40.3945 9.89571 37.2297 13.747 37.2249C17.5757 37.2184 20.7654 40.367 20.78 44.1638C20.7945 48.0895 17.6902 51.2349 13.7873 51.2478ZM13.7728 49.2938C16.556 49.2922 18.8551 46.9883 18.8341 44.2234C18.8132 41.4666 16.556 39.2159 13.7889 39.1917C11.0219 39.1676 8.7066 41.465 8.70499 44.2395C8.70338 47.0238 10.9815 49.297 13.7728 49.2938Z" fill="#15B2B5"/>
</svg>
