<svg width="54" height="53" viewBox="0 0 54 53" fill="none" xmlns="http://www.w3.org/2000/svg">
<path d="M52.9733 51.3805C52.8152 50.7097 52.3096 50.3081 51.6188 50.3066C49.0637 50.3009 46.5086 50.3024 43.9521 50.3024L38.2765 50.3038L39.6181 48.9664C39.9799 48.6061 40.3345 48.2529 40.6849 47.9039L40.7006 47.8883C41.6804 46.9127 42.6062 45.9912 43.5305 45.0526C43.9208 44.6567 44.3637 44.4701 44.9234 44.4687C46.9074 44.4829 48.9455 44.4801 50.7429 44.4772L51.4707 44.4758C52.395 44.4744 52.996 43.9488 53.0003 43.1384C53.0032 42.7681 52.8807 42.4491 52.6457 42.2127C52.3694 41.9335 51.9435 41.7797 51.4479 41.7797H36.0889C24.5696 41.7797 13.0503 41.7797 1.53106 41.7769C0.780484 41.7769 0.343242 42.0517 0.0683636 42.6955L0.0640909 42.704C0.0498485 42.771 0.0199394 42.9732 0 43.1968C0.00427273 43.3521 0.035606 43.4945 0.0925757 43.6198C0.380273 44.2251 0.814666 44.4801 1.551 44.4801C4.01779 44.4729 6.51733 44.4744 8.93427 44.4744H9.23906C10.2147 44.4744 11.1903 44.4758 12.1659 44.4758H13.6158L13.4876 45.3702C13.4235 45.8174 13.15 46.0553 13.019 46.1706C13.0005 46.1863 12.9934 46.192 12.9877 46.1991C12.6031 46.5865 12.2157 46.9711 11.8298 47.357C11.0621 48.1219 10.2688 48.9137 9.50112 49.7042C9.09806 50.1186 8.62948 50.3123 8.02418 50.3123H8.00281C7.08845 50.3052 6.14845 50.3066 5.31954 50.3095H5.21272C4.06479 50.3109 2.87839 50.3138 1.70909 50.2967C0.863091 50.2796 0.390242 50.5288 0.088303 51.1526C0.0754848 51.2523 0.0526969 51.4574 0.0313333 51.7052C0.00996969 51.9616 0.082606 52.2123 0.230727 52.3932C0.454333 52.6666 0.699303 52.8646 0.978454 52.9999H51.9179L51.9578 52.9828C52.0746 52.9344 52.1842 52.8902 52.2768 52.8418C52.8166 52.5612 53.1071 51.9474 52.9733 51.3805ZM24.4941 47.4852C23.7564 48.2216 22.9944 48.9835 22.2509 49.7398C21.8692 50.1286 21.4462 50.3095 20.9221 50.3095H20.905C19.3512 50.2967 17.7717 50.2981 16.2463 50.2995C15.7065 50.2995 15.1611 50.3009 14.607 50.3009H12.7142L15.0115 48.0051C16.0797 46.9369 17.1066 45.9114 18.1292 44.8846C18.4041 44.6082 18.7302 44.4687 19.0977 44.4687C20.6173 44.4729 22.1356 44.4729 23.6609 44.4715H26.4268L26.2815 45.3788C26.2117 45.8174 25.9426 46.0524 25.813 46.1664L25.803 46.1749C25.7944 46.182 25.7873 46.1892 25.7802 46.1963C25.3743 46.6036 24.967 47.0124 24.5582 47.4197L24.4941 47.4852ZM35.0392 49.7412C34.6575 50.13 34.2345 50.3109 33.7104 50.3109H33.6933C32.111 50.2981 30.5471 50.2995 29.0346 50.3009C28.4948 50.3009 27.9493 50.3024 27.3953 50.3024H25.5039L27.777 48.0293C28.8537 46.954 29.8877 45.9214 30.9174 44.886C31.1923 44.6097 31.5185 44.4701 31.8859 44.4701C33.4056 44.4744 34.9224 44.4744 36.4478 44.4729H39.2122L39.0698 45.3788C39 45.8189 38.7308 46.0553 38.6012 46.1678L38.5927 46.1749C38.5841 46.182 38.5756 46.1892 38.5685 46.1963C38.1369 46.6292 37.7054 47.0622 37.2724 47.4952C36.5774 48.1916 35.7883 48.9792 35.0392 49.7412Z" fill="#15B2B5"/>
<path d="M0.159393 15.4188L0.162241 15.443C0.878635 18.0978 3.015 19.747 5.74384 19.7499C10.8782 19.7542 15.9941 19.7527 22.0956 19.7499C22.5542 19.7499 22.9558 19.5989 23.2264 19.3255C23.4671 19.0833 23.5924 18.7586 23.5882 18.3897C23.581 17.595 22.9857 17.0595 22.1055 17.0566C21.073 17.0538 20.0418 17.0538 19.0092 17.0552L13.9688 17.0566C11.2314 17.0566 8.49263 17.0566 5.75524 17.0552C4.38939 17.0538 3.28133 16.3061 2.86403 15.1026C2.55069 14.1968 2.68173 13.2397 3.22579 12.4749C3.78694 11.6858 4.68991 11.2315 5.70254 11.2301C8.81736 11.2272 11.9336 11.2258 15.047 11.2272C17.4013 11.2272 19.7555 11.2272 22.1084 11.2258C22.9871 11.2258 23.5825 10.6889 23.5882 9.89128C23.591 9.52525 23.46 9.19055 23.2179 8.94558C22.9544 8.67925 22.5741 8.53255 22.1468 8.53255L20.2369 8.53113C17.8855 8.5297 15.4942 8.52686 13.0929 8.52686C10.2687 8.52686 7.79475 8.5297 5.53021 8.5354C3.26139 8.5411 1.18485 10.0038 0.361635 12.1743C0.326029 12.2712 0.29612 12.3908 0.266211 12.5176C0.246272 12.6002 0.226332 12.6814 0.203544 12.7626C0.0710898 13.2425 0.00415039 13.7396 0.00415039 14.2395V14.3292C0.00415039 14.6283 0.066817 14.9459 0.128059 15.2179C0.146575 15.2991 0.153696 15.3703 0.159393 15.4188Z" fill="#15B2B5"/>
<path d="M29.419 5.79951C29.4175 7.71227 29.4175 9.6236 29.419 11.5364V14.1085C29.419 14.9958 29.419 15.8817 29.4175 16.769V16.8459C29.4161 18.7416 29.4147 20.7014 29.4204 22.6284C29.4289 25.7759 31.9114 28.257 35.0704 28.274C36.5573 28.2826 37.9317 28.2826 39.269 28.274C42.4209 28.2541 44.8948 25.7674 44.9019 22.6141C44.9076 19.8995 44.9062 17.1379 44.9062 14.4674V14.3549C44.9062 12.8652 44.9047 11.3754 44.9047 9.88424C44.9047 9.12084 44.8164 8.366 44.6427 7.64248C43.6172 3.37545 40.1293 0.384545 35.7554 0.0227879C35.566 0.00712121 35.3766 0 35.1914 0C33.6732 0 32.2831 0.517 31.2306 1.48548C30.0641 2.55936 29.4204 4.09042 29.419 5.79951ZM32.1264 11.6973C32.1264 9.76175 32.1264 7.82478 32.1264 5.88924C32.1264 4.87945 32.4569 4.04342 33.0807 3.47088C33.7002 2.9026 34.5519 2.64624 35.5446 2.73027C38.799 3.00657 41.2829 5.14294 42.0278 8.30618C42.1503 8.82603 42.2101 9.38575 42.2086 10.0167C42.2072 12.1445 42.2072 14.2723 42.2072 16.4001V17.3914C42.2072 19.0863 42.2072 20.7811 42.2058 22.4774C42.2044 24.3602 40.9881 25.578 39.1052 25.5808H38.6281C37.4332 25.5808 36.2667 25.5765 35.1587 25.5694C33.3484 25.5566 32.1293 24.326 32.1264 22.5044C32.1236 20.529 32.1236 18.5536 32.125 16.5767V14.1427L32.1264 11.6973Z" fill="#15B2B5"/>
<path d="M34.3243 33.9782C30.2794 33.5353 26.3485 32.2363 22.6412 30.1157C22.3393 29.9433 22.0416 29.8564 21.7568 29.8564C21.2982 29.8564 20.9051 30.0914 20.6487 30.5201C20.465 30.8263 20.4109 31.1781 20.4963 31.5071C20.5917 31.8732 20.8495 32.1922 21.2241 32.4073C26.1634 35.2401 31.3804 36.7227 36.7284 36.8124C38.2296 36.811 39.7421 36.6743 41.3501 36.3923C45.2568 35.7087 48.9427 34.3542 52.3053 32.3674C52.65 32.1637 52.8878 31.8589 52.9762 31.5071C53.0602 31.171 53.0004 30.8135 52.8095 30.5016C52.3936 29.8223 51.6274 29.6499 50.9025 30.0743C49.6748 30.7922 48.3858 31.4231 47.0727 31.9472C42.5393 33.756 38.3691 34.4197 34.3243 33.9782Z" fill="#15B2B5"/>
</svg>
