<svg width="70" height="57" viewBox="0 0 70 57" fill="none" xmlns="http://www.w3.org/2000/svg">
<path d="M6.99519 43.6798C6.99519 43.0022 7.15334 42.3178 7.45817 41.7084L13.1101 30.2757C13.6854 29.1092 13.9879 27.8086 13.9879 26.5102V11.1006C13.9879 9.87729 14.4761 8.73583 15.3585 7.88997C16.2111 7.06912 17.3204 6.62573 18.4984 6.62573H18.6474L19.4427 6.65074C28.9359 6.93724 38.569 6.93724 48.0782 6.65074H50.8721C53.3589 6.65074 55.3827 8.65852 55.3827 11.1256V27.7267C55.3827 29.2206 55.7792 30.6986 56.5332 31.9924L61.9903 41.4015C62.3868 42.0791 62.5908 42.8499 62.5908 43.6343V56.9998H66.7003V43.6275C66.7003 42.1336 66.3038 40.6602 65.5543 39.3619L60.0972 29.9528C59.7007 29.2752 59.4967 28.4998 59.4967 27.7199V11.1324C59.4967 6.41881 55.6279 2.58061 50.8767 2.58061H47.9889C38.5575 2.86711 28.9955 2.86711 19.5734 2.58061L18.7826 2.5556C16.4334 2.47829 14.1988 3.33325 12.5096 4.95902C10.8204 6.5848 9.88992 8.76539 9.88992 11.1006V26.508C9.88992 27.1856 9.72948 27.8677 9.42694 28.4794L3.77502 39.9121C3.18828 41.074 2.88574 42.3792 2.88574 43.6798V56.9998H6.99519V43.6798Z" fill="#18B3B5"/>
<path d="M50.4411 38.3252H38.6445C35.3189 38.3252 32.6167 41.006 32.6167 44.3053V50.2855C32.6167 53.5848 35.3189 56.2656 38.6445 56.2656H50.4411C53.7667 56.2656 56.4689 53.5848 56.4689 50.2855V44.3053C56.4666 41.006 53.7599 38.3252 50.4411 38.3252ZM41.1038 41.3153H43.1688V53.2733H41.1038V41.3153ZM46.1781 41.3153H48.2432V53.2733H46.1781V41.3153ZM35.6306 50.2855V44.3053C35.6306 42.8433 36.6872 41.6313 38.0853 41.3698V53.221C36.6941 52.9595 35.6306 51.7407 35.6306 50.2855ZM53.455 50.2855C53.455 51.6498 52.5245 52.8071 51.2571 53.1618V41.429C52.5222 41.7814 53.455 42.9342 53.455 44.3053V50.2855Z" fill="#18B3B5"/>
<path d="M46.6045 12.1104H21.5513V15.9349H46.6045V12.1104Z" fill="#18B3B5"/>
<path d="M46.6045 21.6694H21.5513V25.494H46.6045V21.6694Z" fill="#18B3B5"/>
<path d="M46.6045 31.2285H21.5513V35.0531H46.6045V31.2285Z" fill="#18B3B5"/>
<path d="M27.9388 42.6997H10.5957V46.5243H27.9411V42.6997H27.9388Z" fill="#18B3B5"/>
<path d="M27.3314 50.3491H9.98828V54.1737H27.3337V50.3491H27.3314Z" fill="#18B3B5"/>
<path d="M1.14597 56.9178H0V43.0088C0 42.188 0.194815 41.1307 0.545482 40.0301C0.854894 39.0638 1.29265 38.1315 1.8473 37.2606L6.15615 28.4928C6.63288 27.5219 6.88499 26.4373 6.88499 25.3549V10.5729C6.82082 9.69971 6.70851 5.49315 10.1533 2.4758C13.0114 -0.0253991 16.4241 0.0200773 17.4417 0.0996608H48.9215C49.8039 -0.0208514 55.9509 -0.673436 59.9503 3.90603C62.0727 6.33674 62.5769 9.14035 62.6869 10.5956L62.6892 10.6388V26.6783C62.6892 27.6083 62.9413 28.5246 63.4203 29.325L68.6872 38.1338C69.2212 39.1411 69.5627 40.2189 69.7025 41.3353C69.7965 42.0811 69.7965 42.8383 69.7071 43.5886V56.7904H68.5611V43.5182L68.5657 43.4841C68.6482 42.8156 68.6482 42.138 68.5657 41.474C68.4442 40.4985 68.1463 39.5549 67.681 38.6727L62.4371 29.9026C61.8526 28.9271 61.5455 27.8106 61.5455 26.676V10.6593C61.4424 9.33817 60.9817 6.82106 59.0862 4.64957C55.3527 0.374793 49.3019 1.19564 49.0475 1.23202L48.965 1.23884H17.3981L17.3752 1.23657C16.502 1.16608 13.456 1.10696 10.9142 3.33075C7.78114 6.07297 7.99658 10.0612 8.03096 10.5092L8.03325 10.5524V25.3549C8.03325 26.6078 7.73989 27.8652 7.18753 28.9908L2.83284 37.8427C2.32403 38.6386 1.92294 39.4912 1.63874 40.3758C1.21014 41.7128 1.14597 42.5995 1.14597 43.0088V56.9178Z" fill="#18B3B5"/>
</svg>
