<svg width="57" height="56" viewBox="0 0 57 56" fill="none" xmlns="http://www.w3.org/2000/svg">
<path d="M56.4835 26.0018C56.4385 25.6873 56.3951 25.3743 56.353 25.0599C56.2618 24.389 56.1676 23.6949 56.0458 23.0138C54.9649 16.9916 52.132 11.7866 47.6254 7.54521C43.5855 3.7429 38.7167 1.32733 33.1523 0.363712C32.5683 0.262278 31.9713 0.184029 31.3946 0.108679C31.1265 0.0739016 30.8585 0.0391244 30.5904 0.00144905L26.4403 0L26.4084 0.0028981C26.1809 0.0362263 25.952 0.0681054 25.7245 0.101434C25.2245 0.172437 24.7246 0.24489 24.2247 0.321689C17.888 1.30704 12.4338 4.19935 8.00983 8.91746C4.10609 13.082 1.71371 17.9305 0.90079 23.3268C-0.578691 33.1412 2.27449 41.5805 9.37918 48.4099C13.5495 52.4179 18.6763 54.8784 24.6203 55.7218C25.9331 55.9087 27.2489 56 28.5574 56C34.2536 56 39.8223 54.251 44.5636 50.924C50.3931 46.8319 54.4186 40.7401 55.9009 33.7672C56.0589 33.0268 56.1502 32.266 56.24 31.5299C56.2835 31.1705 56.3284 30.7981 56.3806 30.4359C56.3951 30.3388 56.4183 30.2402 56.4443 30.1374C56.4574 30.0866 56.469 30.0359 56.4806 29.9852L56.4864 26.0322L56.4835 26.0018ZM50.3917 14.1398L42.0045 18.984C40.754 17.164 39.2789 15.6903 37.5024 14.4876L42.3436 6.0976C45.6112 8.17699 48.2471 10.8114 50.3917 14.1398ZM29.5659 5.16876C29.5659 4.14718 29.5674 3.1256 29.5688 2.10257C33.4798 2.27356 37.072 3.23718 40.5367 5.04849L35.7215 13.395C35.4954 13.3095 35.2708 13.2197 35.052 13.1327C34.413 12.8792 33.8087 12.6386 33.1653 12.4691C32.293 12.2401 31.3888 12.0923 30.515 11.9489C30.2817 11.9112 30.0484 11.8721 29.8151 11.8329L29.7731 11.8257C29.5572 11.7895 29.5572 11.7895 29.5572 11.6547C29.563 9.49273 29.5645 7.33075 29.5659 5.16876ZM27.4155 2.10257V11.7895C25.239 11.9489 23.2393 12.4894 21.3121 13.4414L16.4679 5.04994C19.9109 3.24587 23.4973 2.28081 27.4155 2.10257ZM14.6566 6.09616L19.4689 14.4282C19.2371 14.6253 19.0052 14.8165 18.7792 15.0064C18.1619 15.5179 17.5794 16.0004 17.0389 16.5424C16.4969 17.0843 16.0173 17.6639 15.5087 18.2783C15.3246 18.5015 15.1377 18.7261 14.9464 18.9521L6.6144 14.1413C8.70103 10.8693 11.3354 8.2335 14.6566 6.09616ZM5.56528 15.9482L13.9133 20.7649C13.8278 20.9866 13.7394 21.2083 13.6539 21.4228C13.4032 22.0502 13.1656 22.6429 13.0004 23.2746C12.7671 24.1687 12.6135 25.0932 12.4657 25.9873C12.428 26.2177 12.3889 26.4466 12.3497 26.677L12.3454 26.706C12.3063 26.9335 12.3063 26.9321 12.1686 26.9335C10.0298 26.9263 7.89101 26.9248 5.75076 26.9234C4.70745 26.9219 3.66413 26.9219 2.62081 26.9205C2.78166 23.0269 3.74528 19.4332 5.56528 15.9482ZM2.61936 29.0477H4.74512C7.16214 29.0477 9.57915 29.0477 11.9962 29.0477C12.0295 29.0477 12.0643 29.0462 12.0976 29.0462C12.3338 29.039 12.3338 29.039 12.3439 29.2085C12.4512 31.2227 12.9801 33.1746 13.9596 35.1743L5.56963 40.0199C3.76266 36.5827 2.79615 32.9876 2.61936 29.0477ZM6.6144 41.8283L14.9464 37.0174C15.1377 37.242 15.3232 37.4666 15.5072 37.6898C16.0144 38.3042 16.494 38.8838 17.036 39.4258C17.5765 39.9677 18.159 40.4502 18.7763 40.9618C19.0038 41.1501 19.2356 41.3429 19.4675 41.5399L14.661 49.8691C11.3731 47.7752 8.73725 45.1408 6.6144 41.8283ZM27.4387 50.766C27.4387 51.7978 27.4372 52.828 27.4372 53.8598C27.4372 53.8612 27.4372 53.8627 27.4372 53.8641C23.5668 53.7076 19.9746 52.7454 16.4665 50.9225L21.2324 42.6629C21.6367 42.7818 22.0337 42.8977 22.425 43.0136C23.5639 43.3498 24.6406 43.6671 25.7346 43.9627C26.1317 44.07 26.5461 44.0961 26.9475 44.1221C27.0388 44.1279 27.13 44.1337 27.2213 44.141C27.4474 44.1584 27.4474 44.1743 27.4474 44.3265C27.4401 46.4725 27.4387 48.62 27.4387 50.766ZM28.5009 42.1065C28.4893 42.1065 28.4762 42.1065 28.4646 42.1065C24.6768 42.0978 21.1266 40.6169 18.4676 37.9405C15.813 35.267 14.3596 31.7139 14.377 27.9348C14.4117 20.1635 20.747 13.8631 28.5095 13.8631C28.5269 13.8631 28.5458 13.8631 28.5646 13.8631C36.3344 13.892 42.6421 20.2374 42.6247 28.0072C42.616 31.7965 41.1424 35.3452 38.4747 38.0028C35.8157 40.6502 32.2756 42.108 28.5009 42.1065ZM29.5775 53.8656C29.5688 53.7467 29.5616 53.6337 29.5616 53.5221C29.5616 52.6686 29.5616 51.8166 29.5616 50.9631C29.563 48.8547 29.5645 46.6754 29.5485 44.5308C29.5456 44.1873 29.5804 44.154 29.9528 44.1279C31.7076 44.0091 33.4812 43.5454 35.223 42.7484L35.6954 42.5325L40.5352 50.9153C37.1082 52.7194 33.5189 53.6859 29.5775 53.8656ZM42.3451 49.8734L37.5038 41.4849C39.3079 40.2517 40.7815 38.7766 42.0002 36.9841L50.3888 41.8268C48.2891 45.1133 45.6547 47.7506 42.3451 49.8734ZM51.4393 40.0184L43.0913 35.2018C43.1754 34.9815 43.2638 34.7613 43.3493 34.5483C43.5898 33.9484 43.8376 33.3282 44.0028 32.6949C44.2419 31.7791 44.3984 30.83 44.5505 29.9127C44.5853 29.7041 44.6186 29.4969 44.6549 29.2882C44.6969 29.0419 44.6954 29.0419 44.8432 29.0419C47.1211 29.0506 49.3991 29.052 51.6784 29.0535L54.3838 29.0564C54.22 32.9297 53.2579 36.519 51.4393 40.0184ZM54.1998 26.9277C52.8855 26.9292 51.5726 26.9292 50.2583 26.9292C48.4847 26.9292 46.7111 26.9292 44.9374 26.9335C44.6737 26.9321 44.6694 26.9234 44.6592 26.7509C44.5505 24.7483 44.026 22.8066 43.0551 20.8171C43.0537 20.8127 43.0508 20.8055 43.0479 20.7939L51.4364 15.9511C53.2405 19.3854 54.2056 22.9732 54.3838 26.9074C54.3186 26.919 54.2563 26.9277 54.1998 26.9277Z" fill="#15B2B5"/>
<path d="M33.329 23.3571C33.1841 23.1905 33.0392 23.0253 32.8972 22.8572L32.1567 21.9863C31.2482 20.9184 30.3092 19.8128 29.376 18.7347C29.1007 18.4173 28.7935 18.2478 28.4863 18.2463C28.2197 18.2463 27.9617 18.3724 27.7473 18.6129C26.9242 19.5418 24.2724 22.7225 23.0219 24.2309C22.961 24.27 22.9031 24.3164 22.8466 24.3715C22.6698 24.541 22.5031 24.7453 22.338 24.9946C20.6339 27.5695 20.4585 30.1952 21.8163 32.7963C23.2059 35.4582 25.5114 36.8637 28.4877 36.8637C28.4892 36.8637 28.4921 36.8637 28.4935 36.8637C31.5814 36.8623 33.9275 35.3915 35.2794 32.6122C36.6111 29.875 36.3169 27.1971 34.4042 24.6526C34.0651 24.2034 33.6913 23.773 33.329 23.3571ZM33.8347 30.4546C33.4159 32.5818 31.6554 34.3308 29.5542 34.7076C27.2981 35.1133 25.0738 34.1497 23.8884 32.2529C22.7046 30.359 22.7843 27.8999 24.0855 26.1321C24.0957 26.119 24.1058 26.106 24.1159 26.0915C24.1725 26.0524 24.2275 26.0089 24.2782 25.9582C24.3565 25.8828 24.4217 25.8002 24.4854 25.722C24.5144 25.6858 26.6996 23.0282 26.73 22.9934L28.5095 20.9155C28.9137 21.3922 29.318 21.8646 29.718 22.3341C30.7859 23.5861 31.7959 24.7671 32.7972 25.9959C33.8202 27.2507 34.1695 28.7505 33.8347 30.4546Z" fill="#15B2B5"/>
</svg>
