<svg width="64" height="53" viewBox="0 0 64 53" fill="none" xmlns="http://www.w3.org/2000/svg">
<path d="M58.738 26.5729C58.3329 26.4471 57.9126 26.378 57.5061 26.3102C57.3803 26.2895 57.2559 26.2688 57.1314 26.2466V24.6967C60.8133 24.4451 63.002 22.6851 63.1485 19.8466C63.2232 18.3838 62.8208 17.1118 61.9512 16.0638C60.7732 14.6466 59.1804 14.0217 57.0816 14.1572V12.7524C57.0816 11.5745 57.083 10.4214 57.0803 9.26828C57.072 4.16094 52.9048 0.00483911 47.7919 0.0020739C37.8884 -0.000691301 27.2824 -0.000691301 15.3671 0.0020739C11.2746 0.00483911 7.62872 2.72857 6.49775 6.62612C6.27515 7.39485 6.14519 8.26727 6.11339 9.2185C6.07329 10.42 6.08159 11.5966 6.08988 12.8423C6.09265 13.2792 6.09541 13.7175 6.0968 14.1613C4.41417 14.0687 3.14356 14.4074 2.10937 15.2162C0.852584 16.1993 0.155752 17.4782 0.0354659 19.0156C-0.0709945 20.3913 0.306456 21.6287 1.15952 22.6961C2.33612 24.17 3.94408 24.8253 6.07329 24.6912V26.2757C4.38099 26.3807 2.84353 27.0956 1.72362 28.2984C0.565003 29.5455 -0.0626989 31.2434 0.00504865 32.955C0.108744 35.5875 0.107361 38.3306 0.00228345 41.3419C-0.0336642 42.365 0.35623 43.3425 1.07242 44.0255C1.75819 44.6795 2.65965 44.9961 3.61226 44.9187C4.21231 44.8703 4.80959 44.8827 5.44006 44.8952C5.65713 44.8993 5.87558 44.9049 6.09541 44.9062V45.7095C6.09541 46.3953 6.09403 47.0493 6.0968 47.7033C6.10647 50.6648 8.42925 52.9889 11.3853 52.9959C12.6752 52.9986 14.0011 53 15.3533 53C16.6834 53 18.0397 52.9986 19.4126 52.9959C22.3728 52.9903 24.7011 50.6703 24.7135 47.7157C24.7163 47.041 24.7149 46.3649 24.7149 45.6819V44.945H38.4621V45.6777C38.4621 46.3497 38.4608 47.0092 38.4635 47.6687C38.4718 50.6993 40.7573 52.9903 43.781 52.9959C45.8273 53 47.8721 52.9986 49.9198 52.9972L51.5568 52.9959C54.8598 52.9945 57.0803 50.7837 57.083 47.4959C57.083 46.8668 57.083 46.2377 57.083 45.5962V44.9062H57.849C58.5348 44.9062 59.1943 44.9076 59.8538 44.9049C61.7618 44.8966 63.1471 43.5015 63.1499 41.5852C63.154 38.6914 63.1568 35.593 63.1499 32.5485C63.1402 29.7889 61.3691 27.3859 58.738 26.5729ZM54.6994 44.9367C54.6828 45.2699 54.6732 45.6045 54.6635 45.9294C54.6372 46.8211 54.6096 47.7447 54.4519 48.6185C54.2542 49.708 53.1274 50.539 51.8291 50.5514C49.5907 50.5735 46.643 50.5929 43.6856 50.5473C42.1274 50.5238 40.9591 49.3513 40.9052 47.7599C40.8831 47.088 40.8886 46.4216 40.8941 45.7151C40.8969 45.4593 40.8983 45.1994 40.8997 44.9367H54.6994ZM22.182 48.2162C22.0064 49.5974 20.9072 50.5362 19.4486 50.5528C16.6765 50.5832 13.9583 50.5832 11.3687 50.5528C9.82153 50.5348 8.63664 49.4052 8.55092 47.8678C8.5122 47.1696 8.52188 46.4783 8.53156 45.7455C8.53571 45.4842 8.53847 45.2201 8.53986 44.9546H22.211C22.2138 45.2588 22.2235 45.5616 22.2318 45.8575C22.2567 46.676 22.2802 47.4502 22.182 48.2162ZM6.06638 16.6099V22.2329C4.56349 22.3505 3.59705 21.9495 2.94446 20.9485C2.30432 19.9641 2.29049 18.9603 2.90437 17.9621C3.47953 17.0288 4.32845 16.5933 5.61565 16.5933C5.75944 16.5933 5.91014 16.5988 6.06638 16.6099ZM59.775 21.5126C59.1279 22.0836 58.214 22.3311 57.1231 22.2316V16.614C58.2168 16.5145 59.132 16.7634 59.7791 17.3358C60.3626 17.8529 60.6972 18.6133 60.6958 19.4235C60.6944 20.2351 60.3584 20.9969 59.775 21.5126ZM36.2403 7.78613C36.0509 7.98246 35.7246 8.0903 35.3195 8.09168C34.4457 8.09445 33.5719 8.09445 32.6981 8.09306H31.5934C31.2118 8.09168 30.826 8.09306 30.4417 8.09445C29.5623 8.09583 28.6844 8.09583 27.805 8.09168C27.4345 8.0903 27.1276 7.98522 26.9437 7.79719C26.8096 7.66169 26.7432 7.48748 26.746 7.28148C26.7515 6.78374 27.1538 6.48648 27.8216 6.4851C29.0286 6.48371 30.2522 6.48233 31.5132 6.48233C32.7478 6.48233 34.0171 6.48371 35.3375 6.4851C36.0066 6.48648 36.4145 6.77959 36.4283 7.27042C36.4339 7.47781 36.3716 7.65063 36.2403 7.78613ZM30.3297 4.04757H29.6121C28.9471 4.04757 28.2889 4.04619 27.6294 4.04895C25.7353 4.05448 24.3043 5.44123 24.3015 7.27318C24.3001 8.17049 24.6347 8.99452 25.2431 9.59457C25.8514 10.1946 26.6893 10.5251 27.6018 10.5264C30.1914 10.5306 32.8709 10.5306 35.5656 10.5264C37.4528 10.5237 38.8755 9.12725 38.8742 7.28009C38.8728 5.44262 37.4459 4.0531 35.5531 4.04757C34.8895 4.04619 34.2272 4.04619 33.5539 4.04619H32.8363V2.46172C32.9276 2.45066 33.0147 2.44098 33.1004 2.44098C34.3918 2.44098 35.6831 2.43822 36.9745 2.43684C40.4683 2.43269 44.0824 2.42716 47.6357 2.44513C50.9885 2.46172 53.6597 4.56743 54.4395 7.81101C54.5653 8.33225 54.6317 8.877 54.6331 9.3858C54.6441 13.8903 54.6427 18.4695 54.6427 22.8994V26.0683C54.6427 26.136 54.6386 26.2038 54.6344 26.2826H52.0227V25.818C52.0227 25.3065 52.0227 24.7935 52.0241 24.282C52.0255 23.1482 52.0269 21.9772 52.0199 20.8241C52.0089 18.6727 51.4558 16.6113 50.3332 14.5208C50.1064 14.0991 49.9917 13.6705 50.0207 13.3442C50.1424 11.9298 49.8133 10.7878 49.0709 10.0453C48.3256 9.30008 47.1767 8.96963 45.7512 9.09269C45.0931 9.14937 44.4115 9.13416 43.7534 9.12034C43.4202 9.11342 43.0745 9.10651 42.7344 9.10789C41.8067 9.11204 40.9591 9.46184 40.3494 10.0923C39.7715 10.6896 39.4659 11.4874 39.4894 12.3404C39.5184 13.405 39.3028 14.3217 38.8119 15.2273C37.905 16.8975 37.4459 18.8096 37.4501 20.9098C37.4515 22.1721 37.4515 23.4344 37.4515 24.7119V26.2466H34.83V23.8921C34.83 22.4846 34.83 21.0771 34.8287 19.6696C34.8273 18.634 34.4056 18.2109 33.3728 18.2082C32.0635 18.2054 30.8841 18.2027 29.7047 18.2096C28.795 18.2151 28.3512 18.6617 28.3484 19.577C28.3443 21.055 28.3456 22.533 28.3456 24.011V26.2701H27.6931C27.6806 26.1941 27.6682 26.1181 27.6557 26.0379C27.6087 25.7295 27.5603 25.4115 27.4331 25.1171C27.1649 24.4949 26.8649 23.8769 26.5745 23.2782C26.3893 22.8952 26.1971 22.4984 26.016 22.1071L25.9759 22.0214C25.8583 21.7684 25.7353 21.5071 25.7381 21.2789C25.7643 18.7916 25.1352 16.4288 23.8674 14.2539C23.7595 14.0701 23.725 13.8046 23.7056 13.5682C23.6849 13.3262 23.6821 13.0732 23.6794 12.8285C23.6738 12.3805 23.6669 11.916 23.5604 11.4721C23.2259 10.066 21.9898 9.11619 20.4855 9.10928C18.9467 9.10098 17.6014 9.10236 16.3751 9.10928C15.4833 9.11481 14.6593 9.46184 14.0551 10.0854C13.473 10.6882 13.1647 11.4874 13.1882 12.3349C13.2172 13.3995 13.0029 14.3175 12.5135 15.2231C11.5774 16.9542 11.1129 18.9728 11.1336 21.2223C11.1364 21.4905 11.0285 21.8251 10.8585 22.0753C9.97085 23.3777 9.44408 24.6732 9.24636 26.0365C9.23669 26.1028 9.21733 26.1747 9.19382 26.2577H8.54677C8.53847 26.1568 8.53018 26.0531 8.53018 25.9521C8.53018 24.5654 8.52879 23.18 8.52741 21.7933C8.52465 17.7713 8.52188 13.6124 8.53156 9.52268C8.53986 6.09797 10.6649 3.39083 13.9458 2.62625C14.4325 2.51288 14.9565 2.45205 15.4625 2.45066C19.4472 2.4396 23.4982 2.44098 27.4165 2.44237L30.1886 2.44375C30.2329 2.44375 30.2771 2.44652 30.3255 2.44928V4.04757H30.3297ZM39.8835 24.0442C39.8351 22.1569 39.7853 20.2074 40.272 18.3354C40.5084 17.4215 40.8679 16.5352 41.3103 15.7748C41.75 15.0185 41.938 14.2885 41.9214 13.4078C41.9034 12.4524 41.9297 11.9906 42.1343 11.7818C42.3542 11.5579 42.892 11.5413 43.752 11.5413C44.0313 11.5413 44.3119 11.5413 44.5912 11.5399C45.2272 11.5385 45.884 11.5371 46.5296 11.544C46.9154 11.5482 47.1919 11.6394 47.355 11.815C47.5057 11.9782 47.5721 12.2312 47.55 12.5685C47.4574 13.9968 47.7449 15.1927 48.4501 16.3334C49.1026 17.3883 49.4649 18.6824 49.4981 20.0747C49.5326 21.5568 49.5257 23.01 49.5174 24.5474C49.5147 25.1226 49.5119 25.7005 49.5105 26.2826H39.9083C39.9222 25.5346 39.9028 24.7769 39.8835 24.0442ZM32.3483 20.6913V26.2549H30.7942V20.6913H32.3483ZM13.8214 18.9977C14.0523 18.2165 14.2707 17.4796 14.4975 16.7495C14.5777 16.491 14.6772 16.2864 14.792 16.1398C15.6022 15.1125 15.6699 13.9235 15.6215 12.7925C15.5994 12.2768 15.6644 11.9699 15.8303 11.7957C15.999 11.6187 16.3156 11.5399 16.859 11.5399L17.5876 11.5385C17.9803 11.5371 18.3798 11.5371 18.7794 11.5371C19.2536 11.5371 19.7293 11.5385 20.2021 11.5413C20.6114 11.544 20.8893 11.6311 21.0552 11.8095C21.2114 11.9768 21.275 12.234 21.2529 12.5962C21.1644 14.0134 21.4451 15.19 22.1378 16.2974C22.6714 17.1505 22.9991 18.1861 23.136 19.4525C19.0172 17.7409 17.8531 17.7381 13.6776 19.4802C13.7274 19.317 13.7744 19.1567 13.8214 18.9977ZM20.9003 26.2715H15.9658C16.2396 25.4641 17.2738 24.7548 18.3301 24.694C19.3781 24.6359 20.4026 25.2705 20.9003 26.2715ZM18.3093 20.6471C21.611 20.5572 24.7951 23.2091 25.1394 26.2674H23.584C23.1858 24.8309 22.3728 23.7289 21.163 22.9906C20.2118 22.4099 19.1444 22.1693 17.8959 22.2564C15.7723 22.403 14.0246 23.9363 13.3043 26.2715H11.7461C11.9341 23.4386 15.0533 20.737 18.3093 20.6471ZM52.1969 36.406C50.1313 36.4046 48.992 35.2695 48.9893 33.2122C48.9879 32.1559 48.9879 31.0996 48.9879 30.0405V28.81C49.8105 28.8086 50.636 28.7975 51.4351 28.7865C53.5187 28.7574 55.4875 28.7312 57.4854 28.8556C59.2648 28.9662 60.581 30.4138 60.6861 32.3743C60.7373 33.32 60.7248 34.2547 60.7124 35.2446C60.7068 35.6221 60.7027 36.0037 60.7013 36.388C60.6972 36.388 60.6916 36.388 60.6875 36.3894C60.5465 36.3977 60.4137 36.406 60.2838 36.406C57.5891 36.4074 54.893 36.4088 52.1969 36.406ZM14.1698 33.6615C14.1242 35.1741 13.0651 36.3065 11.6507 36.3535C9.45652 36.4254 7.21809 36.4101 5.05293 36.3949C4.20816 36.3894 3.36477 36.3839 2.51862 36.3825C2.51585 35.9719 2.50479 35.5598 2.49373 35.1603C2.4647 34.0874 2.43843 33.0753 2.55042 32.0605C2.75919 30.1566 4.09202 28.8708 5.94471 28.7851C7.89003 28.6952 9.79802 28.7146 11.818 28.7353C12.5909 28.7436 13.3873 28.7519 14.1809 28.7533C14.1823 29.2206 14.185 29.6838 14.1878 30.1428C14.1975 31.3554 14.2044 32.4988 14.1698 33.6615ZM5.03357 38.8422C7.11163 38.8422 9.15649 38.8421 11.2014 38.8408C14.3385 38.838 16.6184 36.5622 16.6225 33.4293C16.6239 32.3176 16.6239 31.2074 16.6239 30.0861V28.7602H46.5531V30.4663C46.5531 31.4577 46.5531 32.449 46.5531 33.4403C46.5573 36.5664 48.8413 38.838 51.9854 38.8408C53.5201 38.8421 55.0534 38.8435 56.5881 38.8435C57.9527 38.8449 59.3187 38.8449 60.6806 38.8463C60.6819 39.0938 60.6847 39.3427 60.6875 39.5915C60.6958 40.3298 60.7041 41.0916 60.6626 41.8382C60.6349 42.3305 60.0916 42.4383 59.927 42.4604C59.7874 42.4784 59.6436 42.4756 59.4888 42.4729C59.4335 42.4715 59.3782 42.4715 59.3215 42.4715C40.8292 42.4715 22.3355 42.4715 3.84177 42.4715C2.64305 42.4715 2.46332 42.2904 2.46332 41.0833V38.8394L5.03357 38.8422Z" fill="#15B2B5"/>
<path d="M42.8896 31.3926H20.3062V33.7554H42.8896V31.3926Z" fill="#15B2B5"/>
<path d="M42.8896 35.4385H20.3062V37.8H42.8896V35.4385Z" fill="#15B2B5"/>
</svg>
