<svg width="47" height="58" viewBox="0 0 47 58" fill="none" xmlns="http://www.w3.org/2000/svg">
<path d="M46.4573 21.8383V21.3095H46.4732C46.4732 20.666 46.475 20.0243 46.475 19.3808C46.4768 17.4063 46.4786 15.3631 46.4679 13.3569C46.4626 12.4208 45.8933 11.8637 44.9428 11.8637C44.9393 11.8637 44.9375 11.8637 44.9339 11.8637C44.7672 11.8637 44.5988 11.8743 44.4197 11.8866C44.1341 11.9042 43.8398 11.9219 43.5365 11.9007C43.1552 11.8743 42.7651 11.8549 42.3856 11.8372C41.3287 11.7861 40.2363 11.7332 39.174 11.5146C35.1626 10.6878 32.1372 8.24439 30.1794 4.25488C28.5107 0.85243 25.1448 -0.642534 21.1777 0.25656C18.9451 0.762521 17.3047 2.14466 16.1626 4.47878C14.5382 7.79661 11.9863 10.0496 8.57787 11.1709C6.26361 11.9324 3.88019 11.9448 1.85144 11.8566C1.79292 11.8549 1.73617 11.8531 1.68119 11.8531C1.12613 11.8531 0.711154 11.98 0.44692 12.2321C0.159633 12.5054 0.0142156 12.9585 0.0142156 13.5808C0.0142156 14.9329 0.0106688 16.2869 0.00712207 17.6408C-0.00174484 21.1455 -0.0106117 24.7701 0.0354962 28.3312C0.0603235 30.2546 0.216381 31.9611 0.510762 33.5495C2.01104 41.6325 6.20509 47.9984 12.9776 52.4692C14.9053 53.7421 16.9979 54.8633 19.0213 55.9457C20.0765 56.5099 21.1671 57.0952 22.2258 57.6945C22.9387 58.0983 23.547 58.1018 24.2634 57.7051C26.1503 56.6562 28.0797 55.6143 29.9453 54.6059L31.1406 53.9589C34.3876 52.2013 37.1843 49.9571 39.4524 47.2897C43.9054 42.0521 46.2569 35.9858 46.4449 29.2638C46.4927 27.5714 46.4786 25.8455 46.4679 24.176C46.4626 23.3968 46.4573 22.6176 46.4573 21.8383ZM43.5241 28.8601C43.157 38.6796 38.6313 46.2038 30.0712 51.2246C28.4983 52.1466 26.8596 53.0104 25.276 53.8443C24.8256 54.0805 24.3769 54.3185 23.9283 54.5565C23.7279 54.6623 23.4565 54.7399 23.1905 54.7399C23.0167 54.7399 22.8465 54.7064 22.7011 54.6271C21.9829 54.2374 21.2451 53.8478 20.5305 53.4723C18.6046 52.4587 16.6113 51.4079 14.7528 50.2003C8.61689 46.2073 4.7988 40.513 3.40669 33.2727C3.11231 31.7425 2.95093 30.1329 2.92611 28.4881C2.88 25.4911 2.88887 22.4448 2.89773 19.4989C2.90128 18.3107 2.90483 17.1243 2.90483 15.9361V14.8783L3.42797 14.8695C6.1111 14.8289 8.27285 14.4605 10.2271 13.7112C13.9353 12.2903 16.7088 9.75698 18.7056 5.96316C19.0922 5.22802 19.5391 4.47349 20.1829 3.93403C21.2664 3.02436 22.7188 2.6753 24.1694 2.975C25.652 3.28351 26.8738 4.20728 27.5229 5.51361C28.7643 8.01697 30.3 9.96325 32.217 11.4617C34.6164 13.3375 37.4999 14.4393 40.7896 14.7373C41.2808 14.7813 41.7667 14.8148 42.2827 14.8519C42.5257 14.8677 42.7704 14.8853 43.0187 14.903L43.4833 14.9382L43.5099 15.4001C43.5135 15.4548 43.517 15.5077 43.5206 15.5605C43.5294 15.6787 43.5383 15.8003 43.5383 15.9255C43.5401 17.2565 43.556 18.6104 43.5702 19.9203C43.6021 22.852 43.6358 25.8807 43.5241 28.8601Z" fill="#15B2B5"/>
<path d="M23.2329 15.7986C15.8911 15.7986 9.91481 21.7114 9.90772 28.9818C9.90063 36.3138 15.8503 42.2848 23.1691 42.2919C23.1726 42.2919 23.1779 42.2919 23.1815 42.2919C26.7708 42.2919 30.1314 40.9203 32.6478 38.4293C35.1678 35.9365 36.5545 32.6028 36.5545 29.0452C36.5545 21.7414 30.58 15.7986 23.2329 15.7986ZM23.2329 39.4148C23.2329 39.4148 23.2311 39.4148 23.2294 39.4148C20.4611 39.4148 17.8436 38.3271 15.8627 36.3508C13.8801 34.3746 12.793 31.769 12.8019 29.0135C12.8196 23.314 17.4978 18.6774 23.2276 18.6757H23.2294C26.0011 18.6757 28.6187 19.7634 30.6013 21.7414C32.5822 23.7177 33.6675 26.3215 33.6586 29.0752C33.6409 34.7748 28.9627 39.413 23.2329 39.4148Z" fill="#15B2B5"/>
<path d="M27.2287 25.1367C27.2269 25.1367 27.2233 25.1367 27.2216 25.1367C26.8119 25.1385 26.3916 25.3395 26.0387 25.6991C25.262 26.4924 24.4906 27.3192 23.7422 28.1196C23.4106 28.4739 23.079 28.8301 22.7456 29.1844L22.57 29.3695L21.7365 29.3043L21.5929 29.1403C21.4599 28.9887 21.3304 28.8353 21.2009 28.6802C20.919 28.3453 20.6512 28.0279 20.3586 27.737C20.0199 27.4021 19.628 27.2328 19.2431 27.2328C18.8885 27.2328 18.5391 27.3774 18.2465 27.6683C17.9627 27.9504 17.812 28.2906 17.812 28.6502C17.812 29.0539 18.0035 29.4647 18.3511 29.8102C18.9009 30.355 19.4542 30.8944 20.0075 31.4339C20.2912 31.7107 20.5749 31.9875 20.8587 32.2642C21.8074 33.1915 22.5044 33.2021 23.4319 32.2977C24.792 30.972 26.2586 29.5335 28.0462 27.767C28.4097 27.4074 28.6154 27.0054 28.6403 26.6052C28.6633 26.228 28.5197 25.8736 28.2253 25.5792C27.9398 25.2901 27.594 25.1367 27.2287 25.1367Z" fill="#15B2B5"/>
</svg>
