<svg width="194" height="80" viewBox="0 0 194 80" fill="none" xmlns="http://www.w3.org/2000/svg">
<path d="M63.7448 69.5311L63.0937 67.9691H60.7231L60.0553 69.5311H59.3708L61.9307 63.7207L64.4237 69.5311H63.7448ZM60.9679 67.3875H62.8544L61.9195 65.1719L60.9679 67.3875Z" fill="white"/>
<path d="M66.0485 63.9863H67.0502C67.6067 63.9863 68.0352 64.1027 68.3245 64.3353C68.6584 64.5901 68.8254 64.9723 68.8254 65.4819C68.8254 65.9582 68.6417 66.3183 68.2745 66.5675C68.6306 66.6561 68.8977 66.8334 69.0702 67.1048C69.2427 67.3707 69.3318 67.6587 69.3318 67.9633C69.3318 68.2126 69.2761 68.4452 69.1704 68.6557C69.0591 68.8662 68.9255 69.0379 68.7642 69.1653C68.4525 69.409 68.0073 69.5309 67.4286 69.5309H66.043V63.9863H66.0485ZM66.6662 64.5679V66.418H67.1337C67.2171 66.418 67.295 66.4124 67.373 66.4069C67.4509 66.4013 67.5455 66.3792 67.6512 66.3404C67.7569 66.3072 67.8515 66.2573 67.935 66.1964C68.0185 66.1355 68.0852 66.0413 68.1409 65.9194C68.1965 65.7976 68.2244 65.6591 68.2244 65.4929C68.2244 65.3212 68.191 65.1717 68.1242 65.0498C68.0574 64.9224 67.9851 64.8338 67.9016 64.7729C67.8181 64.7119 67.718 64.6621 67.6011 64.6344C67.4843 64.6067 67.3952 64.5845 67.334 64.5735C67.2728 64.5679 67.2116 64.5679 67.1504 64.5679H66.6662ZM66.6662 66.9719V68.9493H67.373C67.8237 68.9493 68.152 68.8717 68.3524 68.7166C68.5972 68.5394 68.7196 68.2846 68.7196 67.9523C68.7196 67.5812 68.5638 67.3097 68.2466 67.138C68.0463 67.0272 67.7347 66.9719 67.3062 66.9719H66.6662Z" fill="white"/>
<path d="M74.0285 64.5679H72.6762V69.5309H72.0585V64.5679H70.7063V63.9863H74.0285V64.5679Z" fill="white"/>
<path d="M80.0608 68.8057C79.5043 69.354 78.8143 69.6255 78.0018 69.6255C77.1893 69.6255 76.5049 69.3485 75.9428 68.8057C75.3863 68.2573 75.1025 67.576 75.1025 66.7618C75.1025 65.942 75.3808 65.2607 75.9484 64.7124C76.5104 64.164 77.1949 63.8926 78.0018 63.8926C78.8087 63.8926 79.4932 64.164 80.0552 64.7124C80.6173 65.2607 80.9011 65.942 80.9011 66.7618C80.9011 67.576 80.6172 68.2573 80.0608 68.8057ZM79.6045 65.1444C79.1648 64.7013 78.6306 64.4797 78.0018 64.4797C77.373 64.4797 76.8387 64.7013 76.3991 65.1444C75.9595 65.5875 75.7369 66.1303 75.7369 66.7618C75.7369 67.3988 75.9595 67.9416 76.3991 68.3792C76.8387 68.8223 77.373 69.0439 78.0018 69.0439C78.6306 69.0439 79.1648 68.8223 79.6045 68.3792C80.0441 67.9361 80.2667 67.3988 80.2667 66.7618C80.2667 66.1248 80.0441 65.5875 79.6045 65.1444Z" fill="white"/>
<path d="M83.3107 69.5312H82.6763L83.6056 63.682L85.7425 68.3569L87.9239 63.6709L88.792 69.5312H88.1576L87.6289 65.676L85.7369 69.7638L83.8671 65.676L83.3107 69.5312Z" fill="white"/>
<path d="M95.5588 68.8057C95.0023 69.354 94.3123 69.6255 93.4998 69.6255C92.6874 69.6255 92.0029 69.3485 91.4409 68.8057C90.8844 68.2573 90.6006 67.576 90.6006 66.7618C90.6006 65.942 90.8788 65.2607 91.4464 64.7124C92.0085 64.164 92.693 63.8926 93.4998 63.8926C94.3067 63.8926 94.9912 64.164 95.5533 64.7124C96.1153 65.2607 96.3991 65.942 96.3991 66.7618C96.3991 67.576 96.1209 68.2573 95.5588 68.8057ZM95.1081 65.1444C94.6685 64.7013 94.1342 64.4797 93.5054 64.4797C92.8766 64.4797 92.3424 64.7013 91.9027 65.1444C91.4631 65.5875 91.2405 66.1303 91.2405 66.7618C91.2405 67.3988 91.4631 67.9416 91.9027 68.3792C92.3424 68.8223 92.8766 69.0439 93.5054 69.0439C94.1342 69.0439 94.6685 68.8223 95.1081 68.3792C95.5477 67.9361 95.7703 67.3988 95.7703 66.7618C95.7647 66.1248 95.5477 65.5875 95.1081 65.1444Z" fill="white"/>
<path d="M98.3689 69.5312V63.9922H101.129V64.5738H98.9866V66.2964H99.7378C101.018 66.2964 101.658 66.8171 101.658 67.8584C101.658 68.3791 101.496 68.789 101.168 69.0881C100.845 69.3872 100.406 69.5367 99.8547 69.5367H98.3689V69.5312ZM98.9866 66.8725V68.9496H99.7044C100.177 68.9496 100.517 68.8444 100.734 68.6394C100.929 68.4566 101.023 68.1963 101.023 67.8529C101.023 67.4541 100.873 67.1771 100.573 67.0165C100.4 66.9223 100.088 66.878 99.6377 66.878H98.9866V66.8725Z" fill="white"/>
<path d="M107.501 69.5314V65.3052L103.628 69.7807V63.9869H104.245V68.2353L108.118 63.7598V69.5314H107.501Z" fill="white"/>
<path d="M110.956 63.9863H114.345V69.5253H113.728V64.5624H111.574V67.5368C111.574 67.7972 111.574 67.991 111.563 68.124C111.557 68.2569 111.513 68.4342 111.435 68.6723C111.352 68.905 111.235 69.0988 111.073 69.2429C110.823 69.4644 110.506 69.5752 110.122 69.5752C110.033 69.5752 109.921 69.5586 109.788 69.5253V68.9437C109.899 68.977 109.999 68.9936 110.099 68.9936C110.317 68.9936 110.495 68.9216 110.645 68.7776C110.745 68.6779 110.817 68.5339 110.867 68.3511C110.917 68.1683 110.945 68.0077 110.951 67.8803C110.956 67.7529 110.962 67.559 110.962 67.2876V63.9863H110.956Z" fill="white"/>
<path d="M116.616 69.5312V63.9922H117.234V66.2964H117.985C119.265 66.2964 119.905 66.8171 119.905 67.8584C119.905 68.3791 119.743 68.789 119.415 69.0881C119.092 69.3872 118.653 69.5367 118.102 69.5367H116.616V69.5312ZM117.234 66.8725V68.9496H117.952C118.425 68.9496 118.764 68.8444 118.981 68.6394C119.176 68.4566 119.27 68.1963 119.27 67.8529C119.27 67.4541 119.12 67.1771 118.82 67.0165C118.647 66.9223 118.335 66.878 117.885 66.878H117.234V66.8725Z" fill="white"/>
<path d="M122.426 63.9863V66.2352H125.28V63.9863H125.898V69.5253H125.28V66.8168H122.426V69.5253H121.808V63.9863H122.426Z" fill="white"/>
<path d="M128.168 69.5309V63.9919H128.786V66.2961H129.537C130.817 66.2961 131.457 66.8168 131.457 67.8581C131.457 68.3788 131.296 68.7887 130.968 69.0878C130.645 69.3869 130.205 69.5364 129.654 69.5364H128.168V69.5309ZM128.786 66.8722V68.9493H129.504C129.977 68.9493 130.316 68.844 130.533 68.6391C130.728 68.4563 130.823 68.196 130.823 67.8526C130.823 67.4538 130.673 67.1768 130.372 67.0162C130.2 66.922 129.888 66.8777 129.437 66.8777H128.786V66.8722ZM132.042 63.9863H132.659V69.5253H132.042V63.9863Z" fill="white"/>
<path d="M137.818 63.9863V64.5679H135.547V66.213H137.751V66.7946H135.547V68.9437H137.818V69.5253H134.93V63.9863H137.818Z" fill="white"/>
<path d="M155.202 63.9873V66.3635L157.573 63.9873H158.407L155.803 66.574L158.491 69.5319H157.64L155.364 66.9895L155.202 67.1501V69.5319H154.584V63.9928H155.202V63.9873Z" fill="white"/>
<path d="M164.462 68.8057C163.905 69.354 163.215 69.6255 162.403 69.6255C161.59 69.6255 160.906 69.3485 160.344 68.8057C159.787 68.2573 159.504 67.576 159.504 66.7618C159.504 65.942 159.782 65.2607 160.35 64.7124C160.912 64.164 161.596 63.8926 162.403 63.8926C163.21 63.8926 163.894 64.164 164.456 64.7124C165.018 65.2607 165.302 65.942 165.302 66.7618C165.302 67.576 165.024 68.2573 164.462 68.8057ZM164.011 65.1444C163.572 64.7013 163.037 64.4797 162.408 64.4797C161.78 64.4797 161.245 64.7013 160.806 65.1444C160.366 65.5875 160.144 66.1303 160.144 66.7618C160.144 67.3988 160.366 67.9416 160.806 68.3792C161.245 68.8223 161.78 69.0439 162.408 69.0439C163.037 69.0439 163.572 68.8223 164.011 68.3792C164.451 67.9361 164.673 67.3988 164.673 66.7618C164.668 66.1248 164.451 65.5875 164.011 65.1444Z" fill="white"/>
<path d="M167.272 63.9873H168.274C168.83 63.9873 169.259 64.1036 169.548 64.3363C169.882 64.5911 170.049 64.9733 170.049 65.4828C170.049 65.9592 169.865 66.3192 169.498 66.5685C169.854 66.6571 170.121 66.8344 170.294 67.1058C170.466 67.3716 170.555 67.6597 170.555 67.9643C170.555 68.2136 170.5 68.4462 170.394 68.6567C170.283 68.8672 170.149 69.0389 169.988 69.1663C169.676 69.41 169.231 69.5319 168.652 69.5319H167.267V63.9873H167.272ZM167.89 64.5689V66.4189H168.357C168.441 66.4189 168.519 66.4134 168.597 66.4079C168.675 66.4023 168.769 66.3802 168.875 66.3414C168.981 66.3082 169.075 66.2583 169.159 66.1974C169.242 66.1364 169.309 66.0423 169.365 65.9204C169.42 65.7986 169.448 65.6601 169.448 65.4939C169.448 65.3222 169.415 65.1727 169.348 65.0508C169.281 64.9234 169.209 64.8348 169.125 64.7738C169.042 64.7129 168.942 64.6631 168.825 64.6354C168.708 64.6077 168.619 64.5855 168.558 64.5744C168.496 64.5689 168.435 64.5689 168.374 64.5689H167.89ZM167.89 66.9728V68.9503H168.597C169.047 68.9503 169.376 68.8727 169.576 68.7176C169.821 68.5404 169.943 68.2856 169.943 67.9532C169.943 67.5821 169.787 67.3107 169.47 67.139C169.27 67.0282 168.958 66.9728 168.53 66.9728H167.89Z" fill="white"/>
<path d="M172.531 63.9873H173.538C174.173 63.9873 174.64 64.1202 174.941 64.3806C175.28 64.6686 175.452 65.0674 175.452 65.5659C175.452 65.998 175.308 66.3635 175.013 66.6682C174.723 66.9728 174.278 67.1224 173.688 67.1224H173.143V69.5319H172.525V63.9873H172.531ZM173.149 64.5689V66.5353H173.661C174.028 66.5353 174.317 66.4466 174.523 66.2694C174.729 66.0921 174.835 65.8484 174.835 65.5327C174.835 64.8902 174.423 64.5689 173.605 64.5689H173.149Z" fill="white"/>
<path d="M181.045 69.5314V65.3052L177.172 69.7807V63.9869H177.79V68.2353L181.663 63.7598V69.5314H181.045Z" fill="white"/>
<path d="M184.551 63.9873V66.3635L186.921 63.9873H187.756L185.152 66.574L187.84 69.5319H186.988L184.712 66.9895L184.551 67.1501V69.5319H183.933V63.9928H184.551V63.9873Z" fill="white"/>
<path d="M193.382 69.5314V65.3052L189.509 69.7807V63.9869H190.127V68.2353L194 63.7598V69.5314H193.382Z" fill="white"/>
<path d="M130.033 24.4714C127.918 21.7296 125.052 20.3559 121.424 20.3559C117.473 20.3559 114.134 21.7406 111.402 24.5046C108.669 27.2686 107.306 30.9354 107.306 35.5051C107.306 38.5903 108.002 41.3543 109.371 43.8025H90.428L109.092 21.1092H81.1292V27.2797H95.9371L80.3946 46.0348V32.2869C80.3946 28.6312 79.7992 25.9558 78.6028 24.2664C76.7219 21.6631 73.8727 20.3614 70.0608 20.3614C66.8944 20.3614 64.2734 21.5025 62.2089 23.7901V21.1147H55.4643V47.3863C55.4643 49.2197 55.0247 51.042 54.1177 52.6373C49.3319 61.0677 41.48 65.3825 32.3593 65.305C17.9298 65.1776 11.2242 57.5282 8.46962 53.0693C7.39005 51.319 6.83914 49.3028 6.83914 47.2478V36.059C6.83914 32.5417 7.29545 30.1156 8.21364 28.7918C9.31547 27.191 10.9682 26.3934 13.1719 26.3934C14.7801 26.3934 16.0433 26.8975 16.9615 27.9C17.8352 28.8583 18.2692 30.5311 18.2692 32.9073V49.9785H25.0193V43.2542C25.5313 44.1792 26.1267 45.0654 26.8335 45.8963C29.3821 48.9151 32.7934 50.4217 37.0616 50.4217C40.5952 50.4217 43.4889 49.12 45.7371 46.5167V50.4217H52.4872V20.6716H45.7371V24.0283C43.6225 21.2864 40.7566 19.9128 37.1283 19.9128C33.1773 19.9128 29.8384 21.2975 27.1061 24.0615C26.0544 25.125 25.2085 26.3214 24.563 27.6508C24.2514 26.2937 23.7839 25.1638 23.1607 24.2664C21.3243 21.6631 18.4751 20.3614 14.6187 20.3614C11.5414 20.3614 8.9482 21.436 6.83357 23.5851V0H0.0890368L0 50.0062C2.05341 63.383 20.0889 71.4921 32.3593 71.3591C45.1083 71.2207 53.9563 65.8534 59.8271 55.0523C61.402 52.1554 62.2144 48.9095 62.2144 45.6138V36.1255C62.2144 33.8877 62.3758 32.0709 62.6986 30.6751C63.0213 29.2792 63.511 28.2988 64.1788 27.7283C64.8466 27.1578 65.4643 26.7922 66.0375 26.6316C66.6106 26.471 67.3786 26.3934 68.3468 26.3934C69.176 26.3934 69.8271 26.4488 70.3112 26.5651C70.7954 26.6814 71.3351 26.9529 71.9306 27.3904C72.526 27.828 72.9656 28.5924 73.2383 29.6891C73.511 30.7859 73.6501 32.2038 73.6501 33.9376V49.9785H77.1392H80.4002H116.187C117.74 50.5712 119.465 50.8703 121.357 50.8703C124.891 50.8703 127.784 49.5687 130.033 46.9653V49.9841H136.783V21.1147H130.033V24.4714ZM32.1367 28.6201C33.6281 26.8365 35.5702 25.9448 37.9575 25.9448C40.2557 25.9448 42.1923 26.759 43.7783 28.3764C45.3642 29.9993 46.1544 32.298 46.1544 35.2669C46.1544 38.1472 45.3642 40.385 43.7783 41.9857C42.1923 43.5865 40.2557 44.3841 37.9575 44.3841C35.5702 44.3841 33.6281 43.4924 32.1367 41.7088C30.6453 39.9252 29.8997 37.7539 29.8997 35.1949C29.8997 32.5971 30.6453 30.4037 32.1367 28.6201ZM128.068 42.4344C126.482 44.0352 124.546 44.8328 122.247 44.8328C119.86 44.8328 117.918 43.941 116.427 42.1575C114.935 40.3739 114.19 38.2026 114.19 35.6436C114.19 33.0402 114.935 30.8468 116.427 29.0632C117.918 27.2797 119.86 26.3879 122.247 26.3879C124.54 26.3879 126.482 27.2021 128.068 28.8195C129.654 30.4424 130.444 32.7411 130.444 35.71C130.444 38.5959 129.654 40.8336 128.068 42.4344Z" fill="#15B2B5"/>
<path d="M168.307 21.1146H159.354L149.916 30.7802V20.3613H143.166V79.9999H149.916V38.8727L151.157 37.6375L160.661 49.9784H169.198L155.837 33.1121L168.307 21.1146Z" fill="#15B2B5"/>
<path d="M175.196 13.5041C176.437 13.5041 177.467 13.0943 178.296 12.2689C179.12 11.4436 179.537 10.4189 179.537 9.18371C179.537 7.94851 179.125 6.9238 178.296 6.09848C177.467 5.27317 176.437 4.86328 175.196 4.86328C173.956 4.86328 172.926 5.27317 172.097 6.09848C171.273 6.9238 170.856 7.94851 170.856 9.18371C170.856 10.4189 171.268 11.4436 172.097 12.2689C172.921 13.0943 173.956 13.5041 175.196 13.5041Z" fill="#15B2B5"/>
<path d="M178.569 21.1143H171.819V49.9781H178.569V21.1143Z" fill="#15B2B5"/>
</svg>
