<svg width="95" height="140" viewBox="0 0 95 140" fill="none" xmlns="http://www.w3.org/2000/svg">
<g clip-path="url(#clip0_50_1843)">
<path d="M47.4295 83.0627V86.3115C45.3974 83.6598 42.641 82.3372 39.1538 82.3372C35.359 82.3372 32.1474 83.6726 29.5256 86.35C26.8974 89.0274 25.5897 92.5715 25.5897 96.9888C25.5897 99.9744 26.2564 102.645 27.5769 105.008H9.37179L27.3077 83.0627H0.435897V89.0274H14.6667L0.128205 106.684C0.0897436 107.12 0.0448718 107.563 0 108C0.025641 108.199 0.0448718 108.405 0.0512821 108.604C0.0641026 109.406 0.108974 110.189 0.147436 110.966H34.1218C35.6154 111.538 37.2692 111.827 39.0897 111.827C42.4872 111.827 45.2692 110.568 47.4295 108.045V110.96H53.9167V83.0498H47.4295V83.0627ZM45.5449 103.679C44.0256 105.226 42.1603 105.997 39.9551 105.997C37.6603 105.997 35.7949 105.137 34.359 103.409C32.9231 101.689 32.2051 99.5892 32.2051 97.1108C32.2051 94.594 32.9231 92.4688 34.359 90.7481C35.7949 89.0209 37.6538 88.1606 39.9551 88.1606C42.1603 88.1606 44.0256 88.9439 45.5449 90.5169C47.0641 92.0835 47.8269 94.3051 47.8269 97.1815C47.8269 99.968 47.0641 102.132 45.5449 103.679Z" fill="#15B2B5"/>
<path d="M84.2115 83.0628H75.6026L66.5385 92.4111V82.3308H60.0513V140H66.5385V100.231L67.7308 99.0371L76.859 110.973H85.0705L72.2308 94.6647L84.2115 83.0628Z" fill="#15B2B5"/>
<path d="M90.8269 75.7048C92.0192 75.7048 93.0128 75.3067 93.8077 74.5105C94.6025 73.7144 95 72.7192 95 71.525C95 70.3308 94.6025 69.3356 93.8077 68.5394C93.0128 67.7433 92.0192 67.3452 90.8269 67.3452C89.6346 67.3452 88.641 67.7433 87.8461 68.5394C87.0512 69.3356 86.6538 70.3308 86.6538 71.525C86.6538 72.7192 87.0512 73.7144 87.8461 74.5105C88.6474 75.3067 89.641 75.7048 90.8269 75.7048Z" fill="#15B2B5"/>
<path d="M94.0707 83.0627H87.5835V110.973H94.0707V83.0627Z" fill="#15B2B5"/>
<path d="M92.7756 53.8427C92.7756 53.5923 92.7949 53.3547 92.8205 53.1172L92.609 53.374V37.4254C92.609 33.1878 91.9231 30.0867 90.5449 28.1284C88.3782 25.1108 85.0962 23.6019 80.7051 23.6019C77.0577 23.6019 74.0385 24.9246 71.6603 27.5762V24.4751H63.891V54.9278C63.891 57.053 63.3846 59.1653 62.3397 61.0144C56.8269 70.7865 47.782 75.7881 37.2756 75.6982C20.6538 75.5506 12.9295 66.6838 9.75641 61.5152C8.51282 59.4864 7.8782 57.1493 7.8782 54.7673V41.7978C7.8782 37.7207 8.40385 34.9085 9.46154 33.374C10.7308 31.5185 12.6346 30.5939 15.1731 30.5939C17.0256 30.5939 18.4808 31.1782 19.5385 32.3403C20.5449 33.451 21.0449 35.39 21.0449 38.1445V57.9326H28.8205V50.138C29.4103 51.2103 30.0962 52.2376 30.9103 53.2006C33.8462 56.6998 37.7756 58.4462 42.6923 58.4462C46.7628 58.4462 50.0962 56.9374 52.6859 53.9197V58.4462H60.4615V23.9615H52.6859V27.8523C50.25 24.6742 46.9487 23.0819 42.7692 23.0819C38.2179 23.0819 34.3718 24.687 31.2244 27.8908C30.0128 29.1236 29.0385 30.5104 28.2949 32.0514C27.9359 30.4783 27.3974 29.1685 26.6795 28.1284C24.5641 25.1108 21.2821 23.6019 16.8397 23.6019C13.2949 23.6019 10.3077 24.8475 7.87179 27.3387V0H0.102564L0 57.9647C2.36538 73.4703 23.141 82.87 37.2756 82.7159C51.9615 82.5554 62.1538 76.3339 68.9167 63.8138C70.7308 60.4559 71.6667 56.6934 71.6667 52.8732V41.8748C71.6667 39.2809 71.8526 37.175 72.2243 35.557C72.5961 33.939 73.1603 32.8026 73.9295 32.1413C74.6987 31.4799 75.4102 31.0562 76.0705 30.87C76.7308 30.6838 77.6154 30.5939 78.7308 30.5939C79.6859 30.5939 80.4359 30.6581 80.9936 30.7929C81.5513 30.9278 82.1731 31.2424 82.859 31.7496C83.5449 32.2568 84.0513 33.1429 84.3654 34.4141C84.6795 35.6854 84.8397 37.3291 84.8397 39.3387V57.9326H92.7756V53.8427ZM37.0192 33.175C38.7372 31.1075 40.9744 30.0738 43.7244 30.0738C46.3718 30.0738 48.6026 31.0177 50.4295 32.8925C52.2564 34.7737 53.1667 37.4382 53.1667 40.8796C53.1667 44.2183 52.2564 46.8122 50.4295 48.6677C48.6026 50.5233 46.3718 51.4478 43.7244 51.4478C40.9744 51.4478 38.7372 50.4141 37.0192 48.3467C35.3013 46.2793 34.4423 43.7624 34.4423 40.7961C34.4423 37.7849 35.3013 35.2424 37.0192 33.175Z" fill="#15B2B5"/>
</g>
<defs>
<clipPath id="clip0_50_1843">
<rect width="95" height="140" fill="white"/>
</clipPath>
</defs>
</svg>
