<svg width="48" height="49" viewBox="0 0 48 49" fill="none" xmlns="http://www.w3.org/2000/svg">
<path d="M0 26.6876C0 25.5629 0 24.4382 0 23.3122C0.102762 22.5595 0.179207 21.8017 0.3133 21.054C1.27826 15.6408 3.73077 11.0241 7.79489 7.30177C11.2387 4.14803 15.274 2.16035 19.8832 1.36252C20.6941 1.22224 21.5111 1.11828 22.3257 0.998047C23.4511 0.998047 24.5765 0.998047 25.7031 0.998047C26.2583 1.07069 26.8134 1.13457 27.3661 1.21598C31.3137 1.79337 34.9642 3.16484 38.1286 5.5984C46.0049 11.6579 49.2093 19.665 47.5915 29.4556C46.7142 34.7661 44.1113 39.26 40.0698 42.8321C34.3439 47.8909 27.6368 49.8347 20.0925 48.6724C15.4093 47.951 11.2988 45.9169 7.80617 42.7056C3.82476 39.0458 1.34468 34.5432 0.378466 29.2202C0.225576 28.381 0.12532 27.5318 0 26.6876ZM26.643 21.3546C26.6442 21.3546 26.6455 21.3546 26.6455 21.3546C26.6455 20.5117 26.6693 19.6675 26.6392 18.8246C26.6029 17.8414 26.1831 17.3617 25.2131 17.3153C23.7318 17.2427 22.248 17.2327 20.7642 17.2352C20.2028 17.2364 19.6414 17.3479 19.2103 17.7775C18.793 18.1933 18.8531 18.4451 19.4108 18.6117C20.2053 18.8496 20.5926 19.293 20.6276 20.0733C20.674 21.1179 20.7292 22.1649 20.7053 23.2095C20.6916 23.8107 20.5625 24.4156 20.4259 25.0056C20.3081 25.5191 19.9359 25.6393 19.5073 25.3224C19.2466 25.1296 19.0035 24.8978 18.8042 24.6436C17.4571 22.9252 16.3994 21.039 15.5948 19.0112C15.3166 18.3086 14.8253 17.9366 14.0646 17.9291C12.6736 17.9128 11.2825 17.8827 9.89275 17.884C9.112 17.884 8.80246 18.3436 9.11827 19.0575C10.7875 22.8325 12.6473 26.5023 15.2351 29.7525C17.8167 32.9951 21.1289 34.6259 25.3246 34.3027C26.1843 34.2363 26.5365 33.8932 26.6518 33.0377C26.742 32.3751 26.8698 31.7138 27.0415 31.0688C27.2195 30.3987 27.7771 30.2109 28.3511 30.5991C28.608 30.7732 28.8424 30.9861 29.0592 31.2091C29.7459 31.9142 30.4139 32.6369 31.0969 33.3458C31.5981 33.8656 32.2034 34.2789 32.9228 34.3065C34.6071 34.3716 36.2964 34.4117 37.9782 34.3403C38.8755 34.3027 39.2414 33.4686 38.8592 32.6444C38.7877 32.4891 38.6937 32.3438 38.601 32.1998C37.6348 30.7018 36.3402 29.4969 35.0858 28.2545C33.8727 27.0534 33.8577 26.7653 34.879 25.3763C35.7675 24.1689 36.6611 22.9653 37.5383 21.7504C38.1611 20.8874 38.7226 19.9906 38.9707 18.9335C39.0647 18.534 38.9369 18.2447 38.5885 18.0831C38.383 17.9879 38.1361 17.9491 37.9067 17.9478C36.2036 17.9366 34.4993 17.9453 32.7962 17.9391C32.2761 17.9366 31.9415 18.1808 31.7498 18.648C31.6671 18.8496 31.5856 19.0525 31.5029 19.2542C30.6294 21.3959 29.4903 23.3761 27.8774 25.0532C27.7032 25.2348 27.3736 25.4289 27.1769 25.3788C26.9789 25.3274 26.8435 24.9868 26.7094 24.7576C26.6505 24.6574 26.6417 24.5158 26.6417 24.3931C26.6405 23.3811 26.643 22.3678 26.643 21.3546Z" fill="#666972"/>
</svg>
